<svg width="20" height="20" viewBox="0 0 20 20" fill="none" xmlns="http://www.w3.org/2000/svg">
  <rect width="20" height="20" rx="4" fill="#687082"/>
  <path d="M15.2966 13.2776H13.3594V7H15.3824C15.9914 7 16.5125 7.12568 16.9457 7.37703C17.3789 7.62633 17.711 7.98497 17.9419 8.45293C18.1728 8.91885 18.2883 9.47672 18.2883 10.1266C18.2883 10.7805 18.1718 11.3435 17.9389 11.8155C17.7059 12.2855 17.3667 12.6472 16.9212 12.9006C16.4757 13.152 15.9342 13.2776 15.2966 13.2776ZM14.1196 12.6033H15.2476C15.7666 12.6033 16.1968 12.5032 16.538 12.3029C16.8793 12.1026 17.1337 11.8176 17.3013 11.4477C17.4689 11.0778 17.5526 10.6374 17.5526 10.1266C17.5526 9.61977 17.4699 9.18348 17.3044 8.8177C17.1388 8.44986 16.8916 8.16786 16.5626 7.97169C16.2336 7.77347 15.8238 7.67436 15.3334 7.67436H14.1196V12.6033Z" fill="white"/>
  <path d="M8.28662 13.2776V7H12.0753V7.67436H9.0468V9.79551H11.8791V10.4699H9.0468V12.6033H12.1243V13.2776H8.28662Z" fill="white"/>
  <path d="M2.79697 13.2776H2L4.30507 7H5.08978L7.39485 13.2776H6.59788L4.72194 7.99314H4.6729L2.79697 13.2776ZM3.09123 10.8254H6.30362V11.4998H3.09123V10.8254Z" fill="white"/>
</svg>
