<svg width="48" height="48" viewBox="0 0 48 48" fill="none" xmlns="http://www.w3.org/2000/svg">
<path opacity="0.24" d="M43.0068 43.0068C36.3492 49.6644 11.6508 49.6644 4.9932 43.0068C-1.6644 36.3492 -1.6644 11.6508 4.9932 4.99321C11.6508 -1.66439 36.3492 -1.66439 43.0068 4.99321C49.6644 11.6508 49.6644 36.3492 43.0068 43.0068Z" fill="#009846"/>
<path d="M34.225 17.725C34.225 18.6363 33.4863 19.375 32.575 19.375C32.5082 19.375 32.4423 19.371 32.3775 19.3633L29.1427 23.6765C29.2278 23.8755 29.275 24.0948 29.275 24.325C29.275 25.2363 28.5363 25.975 27.625 25.975C26.7731 25.975 26.072 25.3294 25.9842 24.5007L21.1705 22.3595C20.8981 22.5579 20.5627 22.675 20.2 22.675C20.0074 22.675 19.8226 22.642 19.6508 22.5814L16.0471 25.6711C16.0654 25.7696 16.075 25.8712 16.075 25.975C16.075 26.8863 15.3363 27.625 14.425 27.625C13.5137 27.625 12.775 26.8863 12.775 25.975C12.775 25.0637 13.5137 24.325 14.425 24.325C14.6173 24.325 14.8019 24.3579 14.9736 24.4184L18.578 21.3295C18.5596 21.2308 18.55 21.129 18.55 21.025C18.55 20.1137 19.2887 19.375 20.2 19.375C21.0524 19.375 21.7538 20.0214 21.8409 20.8507L26.6564 22.9891C26.9284 22.7915 27.2631 22.675 27.625 22.675C27.6918 22.675 27.7577 22.679 27.8225 22.6867L31.0573 18.3735C30.9722 18.1745 30.925 17.9552 30.925 17.725C30.925 16.8137 31.6637 16.075 32.575 16.075C33.4863 16.075 34.225 16.8137 34.225 17.725Z" fill="#009846"/>
<path fill-rule="evenodd" clip-rule="evenodd" d="M39.175 30.925H38.35V13.6C38.35 12.2387 37.2362 11.125 35.875 11.125H11.125C9.76375 11.125 8.65 12.2387 8.65 13.6V30.925H7.825C7.37125 30.925 7 31.2962 7 31.75C7 34.027 8.848 35.875 11.125 35.875H35.875C38.152 35.875 40 34.027 40 31.75C40 31.2962 39.6287 30.925 39.175 30.925ZM8.79025 32.575H38.2098C37.8715 33.532 36.9475 34.225 35.875 34.225H11.125C10.0525 34.225 9.1285 33.532 8.79025 32.575ZM36.7 13.6V30.925H10.3V13.6C10.3 13.1462 10.6712 12.775 11.125 12.775H35.875C36.3287 12.775 36.7 13.1462 36.7 13.6Z" fill="#009846"/>
</svg>
