<svg width="48" height="48" viewBox="0 0 48 48" fill="none" xmlns="http://www.w3.org/2000/svg">
<path opacity="0.24" d="M43.0068 43.0068C36.3492 49.6644 11.6508 49.6644 4.9932 43.0068C-1.6644 36.3492 -1.6644 11.6508 4.9932 4.99321C11.6508 -1.66439 36.3492 -1.66439 43.0068 4.99321C49.6644 11.6508 49.6644 36.3492 43.0068 43.0068Z" fill="#009846"/>
<path fill-rule="evenodd" clip-rule="evenodd" d="M21.7283 29.4018L31.4313 20.1206C31.8428 19.7267 31.8573 19.0739 31.4633 18.6624C31.0704 18.2509 30.4166 18.2375 30.0051 18.6304L21.0312 27.2146L17.526 23.7083C17.1228 23.3061 16.47 23.3061 16.0678 23.7083C15.6646 24.1115 15.6646 24.7643 16.0678 25.1675L20.2866 29.3853C20.4867 29.5875 20.7507 29.6875 21.0157 29.6875C21.2725 29.6875 21.5283 29.5926 21.7283 29.4018ZM23.5 10.0938C16.107 10.0938 10.0938 16.108 10.0938 23.5C10.0938 30.893 16.107 36.9062 23.5 36.9062C30.892 36.9062 36.9062 30.893 36.9062 23.5C36.9062 16.108 30.892 10.0938 23.5 10.0938ZM23.5 38.9688C14.9705 38.9688 8.03125 32.0295 8.03125 23.5C8.03125 14.9705 14.9705 8.03125 23.5 8.03125C32.0295 8.03125 38.9688 14.9705 38.9688 23.5C38.9688 32.0295 32.0295 38.9688 23.5 38.9688Z" fill="#009846"/>
</svg>
