<svg width="48" height="48" viewBox="0 0 48 48" fill="none" xmlns="http://www.w3.org/2000/svg">
<path opacity="0.24" d="M43.0068 43.0068C36.3492 49.6644 11.6508 49.6644 4.9932 43.0068C-1.6644 36.3492 -1.6644 11.6508 4.9932 4.99321C11.6508 -1.66439 36.3492 -1.66439 43.0068 4.99321C49.6644 11.6508 49.6644 36.3492 43.0068 43.0068Z" fill="#009846"/>
<path fill-rule="evenodd" clip-rule="evenodd" d="M17.7852 16.075C16.6916 16.075 15.6425 16.5093 14.8681 17.2828L11.1268 21.025H15.2482C15.7039 21.025 16.0732 21.3944 16.0732 21.85C16.0732 22.3056 15.7039 22.675 15.2482 22.675H12.7557C12.7272 22.7168 12.6943 22.7566 12.6572 22.7937L11.1268 24.3249L15.2644 24.325C15.7201 24.325 16.0894 24.6944 16.0894 25.15C16.0894 25.6056 15.7201 25.975 15.2644 25.975H12.7768L11.1268 27.625H15.2644C15.7201 27.625 16.0894 27.9944 16.0894 28.45C16.0894 28.9056 15.7201 29.275 15.2644 29.275H12.774C12.7614 29.2894 12.7483 29.3034 12.7346 29.3171L11.1268 30.925H15.2644C15.7201 30.925 16.0894 31.2943 16.0894 31.75C16.0894 32.2056 15.7201 32.575 15.2644 32.575H11.1266C9.65638 32.575 8.9206 30.7977 9.95996 29.7583L10.5447 29.1736C9.48244 28.7824 9.06902 27.3493 9.95996 26.4584L10.5447 25.8736C9.4825 25.4825 9.06907 24.0495 9.9598 23.1585L10.5445 22.5735C9.48241 22.1823 9.0691 20.7493 9.9599 19.8584L13.7013 16.1162C14.7848 15.0336 16.2538 14.425 17.7852 14.425H35.3667C36.7852 14.425 37.5406 16.0949 36.6094 17.1613L36.0069 17.8498C36.9877 18.2567 37.3878 19.5699 36.6094 20.4613L36.0069 21.1498C36.9877 21.5567 37.3878 22.8699 36.6094 23.7613L36.0069 24.4498C36.9877 24.8567 37.3878 26.1699 36.6094 27.0613L33.5101 30.6029C32.4131 31.8557 30.8297 32.575 29.1636 32.575H26.0476C25.5919 32.575 25.2226 32.2056 25.2226 31.75C25.2226 31.2944 25.5919 30.925 26.0476 30.925H29.1636C30.3535 30.925 31.4844 30.4116 32.2684 29.5163L35.3666 25.976C35.3665 25.9758 35.3667 25.9753 35.3667 25.9751L34.6722 25.975L33.5101 27.3029C32.4131 28.5557 30.8297 29.275 29.1636 29.275H26.0476C25.5919 29.275 25.2226 28.9056 25.2226 28.45C25.2226 27.9944 25.5919 27.625 26.0476 27.625H29.1636C30.3535 27.625 31.4844 27.1116 32.2684 26.2163L35.3666 22.676L35.3667 22.6751L34.7101 22.675C34.6976 22.675 34.6852 22.6747 34.6729 22.6742L33.5101 24.0029C32.4131 25.2557 30.8297 25.975 29.1636 25.975H26.0476C25.5919 25.975 25.2226 25.6056 25.2226 25.15C25.2226 24.6944 25.5919 24.325 26.0476 24.325H29.1636C30.3535 24.325 31.4844 23.8116 32.2684 22.9163L35.3666 19.376C35.3665 19.3759 35.3665 19.3762 35.3666 19.376C35.3666 19.3758 35.3667 19.3752 35.3667 19.3751L34.8132 19.375C34.7683 19.375 34.7243 19.3714 34.6813 19.3645L33.5101 20.7029C32.4131 21.9557 30.8297 22.675 29.1636 22.675H26.46C26.0044 22.675 25.635 22.3056 25.635 21.85C25.635 21.3944 26.0044 21.025 26.46 21.025H29.1636C30.3535 21.025 31.4844 20.5116 32.2684 19.6163L35.3666 16.076L35.3666 16.0751L30.4419 16.075L25.0505 21.4672C24.5862 21.9315 24.3252 22.5608 24.3252 23.217V31.75C24.3252 32.2056 23.9558 32.575 23.5002 32.575H17.7252C17.2695 32.575 16.9002 32.2056 16.9002 31.75V23.217C16.9002 22.1225 17.3355 21.0738 18.1087 20.3006L22.3336 16.075L17.7852 16.075ZM24.6669 16.075L19.2755 21.4672C18.8112 21.9315 18.5502 22.5608 18.5502 23.217V30.925H22.6752V23.217C22.6752 22.1225 23.1105 21.0738 23.8836 20.3006L28.1086 16.075L24.6669 16.075Z" fill="#009846"/>
</svg>
