<svg width="28" height="28" viewBox="0 0 28 28" fill="none" xmlns="http://www.w3.org/2000/svg">
<path d="M25.0873 25.0873C21.2037 28.9709 6.7963 28.9709 2.9127 25.0873C-0.9709 21.2037 -0.970901 6.7963 2.9127 2.9127C6.7963 -0.970898 21.2037 -0.970898 25.0873 2.9127C28.9709 6.7963 28.9709 21.2037 25.0873 25.0873Z" fill="#009846"/>
<path fill-rule="evenodd" clip-rule="evenodd" d="M12.4799 16.898L18.0665 11.5543C18.3034 11.3275 18.3118 10.9516 18.0849 10.7147C17.8587 10.4778 17.4823 10.4701 17.2454 10.6963L12.0786 15.6387L10.0604 13.6199C9.82825 13.3884 9.45241 13.3884 9.22084 13.6199C8.98869 13.8521 8.98869 14.2279 9.22084 14.4601L11.6499 16.8885C11.7651 17.0049 11.9171 17.0625 12.0697 17.0625C12.2175 17.0625 12.3648 17.0079 12.4799 16.898ZM13.5 5.78125C9.24341 5.78125 5.78125 9.244 5.78125 13.5C5.78125 17.7566 9.24341 21.2188 13.5 21.2188C17.756 21.2188 21.2188 17.7566 21.2188 13.5C21.2188 9.244 17.756 5.78125 13.5 5.78125ZM13.5 22.4062C8.58909 22.4062 4.59375 18.4109 4.59375 13.5C4.59375 8.58909 8.58909 4.59375 13.5 4.59375C18.4109 4.59375 22.4062 8.58909 22.4062 13.5C22.4062 18.4109 18.4109 22.4062 13.5 22.4062Z" fill="white"/>
</svg>
