<svg width="16" height="16" viewBox="0 0 16 16" fill="none" xmlns="http://www.w3.org/2000/svg">
  <path d="M8.66668 7.3335H10C10.1768 7.3335 10.3464 7.40373 10.4714 7.52876C10.5964 7.65378 10.6667 7.82335 10.6667 8.00016C10.6667 8.17697 10.5964 8.34654 10.4714 8.47157C10.3464 8.59659 10.1768 8.66683 10 8.66683H8.00001C7.8232 8.66683 7.65363 8.59659 7.52861 8.47157C7.40358 8.34654 7.33334 8.17697 7.33334 8.00016V5.00016C7.33334 4.82335 7.40358 4.65378 7.52861 4.52876C7.65363 4.40373 7.8232 4.3335 8.00001 4.3335C8.17682 4.3335 8.34639 4.40373 8.47142 4.52876C8.59644 4.65378 8.66668 4.82335 8.66668 5.00016V7.3335Z" fill="#009846"/>
  <path fill-rule="evenodd" clip-rule="evenodd" d="M4.2962 2.45703C5.39253 1.72449 6.68147 1.3335 8.00001 1.3335C9.76812 1.3335 11.4638 2.03588 12.7141 3.28612C13.9643 4.53636 14.6667 6.23205 14.6667 8.00016C14.6667 9.3187 14.2757 10.6076 13.5431 11.704C12.8106 12.8003 11.7694 13.6548 10.5512 14.1594C9.33306 14.6639 7.99262 14.796 6.69941 14.5387C5.40621 14.2815 4.21831 13.6466 3.28596 12.7142C2.35361 11.7819 1.71868 10.594 1.46145 9.30077C1.20421 8.00756 1.33623 6.66711 1.84081 5.44894C2.34539 4.23077 3.19988 3.18958 4.2962 2.45703ZM5.03697 12.4347C5.91403 13.0207 6.94518 13.3335 8.00001 13.3335C9.4145 13.3335 10.7711 12.7716 11.7713 11.7714C12.7714 10.7712 13.3333 9.41465 13.3333 8.00016C13.3333 6.94533 13.0206 5.91418 12.4345 5.03712C11.8485 4.16006 11.0155 3.47647 10.041 3.0728C9.06645 2.66914 7.99409 2.56352 6.95952 2.76931C5.92496 2.9751 4.97465 3.48305 4.22877 4.22893C3.48289 4.97481 2.97494 5.92512 2.76916 6.95968C2.56337 7.99425 2.66899 9.0666 3.07265 10.0411C3.47632 11.0157 4.15991 11.8486 5.03697 12.4347Z" fill="#009846"/>
</svg>
