<svg width="28" height="28" viewBox="0 0 28 28" fill="none" xmlns="http://www.w3.org/2000/svg">
<path d="M25.0873 25.0873C21.2037 28.9709 6.7963 28.9709 2.9127 25.0873C-0.9709 21.2037 -0.970901 6.7963 2.9127 2.9127C6.7963 -0.970898 21.2037 -0.970898 25.0873 2.9127C28.9709 6.7963 28.9709 21.2037 25.0873 25.0873Z" fill="#009846"/>
<path fill-rule="evenodd" clip-rule="evenodd" d="M10.2096 9.22499C9.58 9.22499 8.97596 9.47507 8.53013 9.92041L6.37602 12.075H8.74897C9.01131 12.075 9.22397 12.2877 9.22397 12.55C9.22397 12.8123 9.01131 13.025 8.74897 13.025H7.31389C7.29745 13.0491 7.27855 13.072 7.25718 13.0934L6.37606 13.975L8.75831 13.975C9.02065 13.975 9.23331 14.1877 9.23331 14.45C9.23331 14.7123 9.02065 14.925 8.75831 14.925H7.32601L6.37602 15.875H8.75831C9.02065 15.875 9.23331 16.0877 9.23331 16.35C9.23331 16.6123 9.02065 16.825 8.75831 16.825H7.3244C7.31718 16.8333 7.30963 16.8414 7.30174 16.8493L6.37602 17.775H8.75831C9.02065 17.775 9.23331 17.9877 9.23331 18.25C9.23331 18.5123 9.02065 18.725 8.75831 18.725H6.37592C5.52942 18.725 5.10579 17.7017 5.70422 17.1033L6.04089 16.7666C5.42928 16.5414 5.19125 15.7163 5.70422 15.2033L6.04089 14.8666C5.42931 14.6414 5.19128 13.8164 5.70412 13.3034L6.04077 12.9666C5.42926 12.7413 5.19129 11.9163 5.70418 11.4033L7.8583 9.24873C8.48216 8.62543 9.32792 8.27499 10.2096 8.27499H20.3324C21.149 8.27499 21.584 9.23648 21.0478 9.85046L20.7009 10.2469C21.2656 10.4811 21.496 11.2372 21.0478 11.7505L20.7009 12.1469C21.2656 12.3812 21.496 13.1372 21.0478 13.6505L20.7009 14.0469C21.2656 14.2812 21.496 15.0372 21.0478 15.5505L19.2634 17.5895C18.6318 18.3109 17.7201 18.725 16.7609 18.725H14.9668C14.7044 18.725 14.4918 18.5123 14.4918 18.25C14.4918 17.9877 14.7044 17.775 14.9668 17.775H16.7609C17.446 17.775 18.0971 17.4794 18.5485 16.9639L20.3323 14.9256C20.3322 14.9255 20.3324 14.9251 20.3323 14.925L19.9325 14.925L19.2634 15.6895C18.6318 16.4109 17.7201 16.825 16.7609 16.825H14.9668C14.7044 16.825 14.4918 16.6123 14.4918 16.35C14.4918 16.0877 14.7044 15.875 14.9668 15.875H16.7609C17.446 15.875 18.0971 15.5794 18.5485 15.0639L20.3323 13.0256L20.3323 13.025L19.9543 13.025C19.9471 13.025 19.94 13.0248 19.9329 13.0245L19.2634 13.7895C18.6318 14.5109 17.7201 14.925 16.7609 14.925H14.9668C14.7044 14.925 14.4918 14.7123 14.4918 14.45C14.4918 14.1877 14.7044 13.975 14.9668 13.975H16.7609C17.446 13.975 18.0971 13.6794 18.5485 13.1639L20.3323 11.1256C20.3322 11.1255 20.3322 11.1257 20.3323 11.1256C20.3323 11.1255 20.3323 11.1251 20.3323 11.125L20.0136 11.125C19.9878 11.125 19.9625 11.1229 19.9377 11.119L19.2634 11.8895C18.6318 12.6109 17.7201 13.025 16.7608 13.025H15.2043C14.9419 13.025 14.7293 12.8123 14.7293 12.55C14.7293 12.2877 14.9419 12.075 15.2043 12.075H16.7608C17.446 12.075 18.0971 11.7794 18.5485 11.2639L20.3323 9.22558L20.3323 9.22504L17.4968 9.22502L14.3927 12.3296C14.1254 12.5969 13.9751 12.9593 13.9751 13.3371V18.25C13.9751 18.5123 13.7624 18.725 13.5001 18.725H10.1751C9.91275 18.725 9.70009 18.5123 9.70009 18.25V13.3371C9.70009 12.7069 9.95072 12.1031 10.3959 11.6579L12.8284 9.225L10.2096 9.22499ZM14.1718 9.22501L11.0677 12.3296C10.8004 12.5969 10.6501 12.9593 10.6501 13.3371V17.775H13.0251V13.3371C13.0251 12.7069 13.2757 12.1031 13.7209 11.6579L16.1534 9.22502L14.1718 9.22501Z" fill="white"/>
</svg>
