<svg width="20" height="20" viewBox="0 0 20 20" fill="none" xmlns="http://www.w3.org/2000/svg">
  <rect width="20" height="20" rx="4" fill="#687082"/>
  <path d="M13.3593 8.0038L12.7471 9.3346H4.07031L4.5494 8.0038H13.3593ZM12.2148 10.6654L11.6026 11.9962H4.07031L4.5494 10.6654H12.2148ZM14.9296 4.41065L14.2908 5.79468C14.0069 5.53739 13.7075 5.31559 13.3926 5.12928C13.0776 4.94297 12.7471 4.7988 12.4011 4.69677C12.0551 4.59474 11.6914 4.54373 11.3099 4.54373C10.5557 4.54373 9.87703 4.75222 9.27374 5.1692C8.67044 5.58619 8.19357 6.20057 7.84313 7.01236C7.49268 7.82415 7.31746 8.82003 7.31746 10C7.31746 11.18 7.49268 12.1759 7.84313 12.9876C8.19357 13.7994 8.67044 14.4138 9.27374 14.8308C9.87703 15.2478 10.5557 15.4563 11.3099 15.4563C11.7002 15.4563 12.0684 15.4053 12.4144 15.3032C12.7649 15.2012 13.0909 15.0615 13.3926 14.884C13.6986 14.7066 13.9803 14.507 14.2376 14.2852L14.903 15.6692C14.4372 16.1084 13.8916 16.4411 13.2661 16.6673C12.6407 16.8891 11.9886 17 11.3099 17C10.2186 17 9.25156 16.7161 8.40872 16.1483C7.57031 15.5805 6.91157 14.7731 6.43248 13.7262C5.95783 12.6793 5.7205 11.4373 5.7205 10C5.7205 8.56274 5.95783 7.32066 6.43248 6.27376C6.91157 5.22687 7.57031 4.41952 8.40872 3.85171C9.25156 3.2839 10.2186 3 11.3099 3C12.0152 3 12.6739 3.12199 13.2861 3.36597C13.9027 3.60995 14.4505 3.95817 14.9296 4.41065Z" fill="white"/>
</svg>
