<svg width="20" height="20" viewBox="0 0 20 20" fill="none" xmlns="http://www.w3.org/2000/svg">
  <rect width="20" height="20" rx="4" fill="#687082"/>
  <path d="M14.4851 17H5.34057V15.5164H14.4851V17ZM11.5718 11.632H5.28662V10.0944H11.5718V11.632ZM8.22689 7.36994L8.44269 13.2235C8.46967 13.79 8.41796 14.3137 8.28758 14.7948C8.1617 15.2714 7.91668 15.6378 7.55252 15.894L5.88007 15.5164C6.14982 15.5164 6.35663 15.3815 6.50049 15.1118C6.64436 14.842 6.74102 14.5273 6.79047 14.1676C6.83993 13.808 6.86016 13.4933 6.85117 13.2235L6.66234 7.36994C6.62638 6.38985 6.80396 5.57611 7.1951 4.92871C7.59073 4.28131 8.10775 3.79801 8.74616 3.47881C9.38906 3.1596 10.0612 3 10.7625 3C11.4054 3 11.9899 3.11689 12.5159 3.35067C13.0419 3.57996 13.4848 3.89017 13.8444 4.28131C14.2041 4.67245 14.4559 5.11304 14.5997 5.60308C14.7436 6.08863 14.7503 6.58767 14.62 7.10019L13.0554 6.66859C13.1183 6.20103 13.0464 5.80539 12.8396 5.4817C12.6373 5.1535 12.3541 4.90623 11.9899 4.73988C11.6302 4.56904 11.2481 4.48362 10.8435 4.48362C10.4119 4.48362 9.996 4.58703 9.59587 4.79384C9.19574 4.99615 8.86755 5.31085 8.61128 5.73796C8.35502 6.16056 8.22689 6.70456 8.22689 7.36994Z" fill="white"/>
</svg>
