<svg width="469" height="202" viewBox="0 0 469 202" fill="none" xmlns="http://www.w3.org/2000/svg">
  <path d="M0.922713 166.239L5.05668 163.827C12.5632 159.447 20.5906 156.028 28.95 153.651C36.1549 151.602 43.5605 150.34 51.0372 149.887L53.9812 149.708C63.0804 149.157 72.2122 149.558 81.2279 150.905L87.279 151.809C97.3613 153.316 107.305 155.635 117.014 158.744L136.209 164.89L169.036 176.923L184.889 181.668C191.822 183.744 198.914 185.242 206.094 186.15C216.752 187.496 227.535 187.531 238.201 186.252L244.396 185.51C254.303 176.644 263.068 166.579 270.489 155.548L270.998 154.791L285.18 126.112L297.56 91.592L304.76 73.3471C307.556 66.2608 310.997 59.4462 315.04 52.9892L318.325 47.7423C319.783 45.4125 321.432 43.2076 323.255 41.15C329.997 33.538 338.907 28.1724 348.789 25.7743L355.231 24.2111L366.272 14.4328C373.255 8.24822 381.734 3.99661 390.867 2.09958C394.103 1.42739 397.395 1.05649 400.7 0.991644L402.462 0.957069C408.916 0.830415 415.347 1.78091 421.489 3.76946C425.223 4.97862 428.826 6.56333 432.24 8.49929L438.329 11.951L448.598 19.5299L468.797 35.5L468.797 58L459.075 49.1743C443.499 35.0356 424.741 24.866 404.394 19.5299C391.549 17.6605 378.463 18.3361 365.879 21.5182L355.231 24.2111C351.501 27.8829 348.266 32.0257 345.609 36.5346L341.749 43.0832C338.152 49.1857 335.112 55.5994 332.664 62.2467L326.373 79.3288L318.597 101.734L309.346 121.013L300.029 139.749L296.998 144.901C294.145 149.75 290.866 154.336 287.201 158.604L285.762 160.28C282.671 163.879 279.233 167.167 275.5 170.094C269.878 174.501 263.636 178.053 256.976 180.635L244.396 185.51L236.517 190.455C229.528 194.841 221.861 198.04 213.827 199.92C205.903 201.775 197.728 202.323 189.627 201.543L180.1 200.624C170.866 199.735 161.749 197.88 152.901 195.092L124.438 186.123L87.0743 172.982L70.3558 168.794C60.7077 166.377 50.86 164.842 40.9342 164.208C30.9269 163.568 20.8821 163.847 10.9257 165.04L0.922713 166.239Z" fill="#009846"/>
</svg>
