<svg width="20" height="20" viewBox="0 0 20 20" fill="none" xmlns="http://www.w3.org/2000/svg">
  <rect width="20" height="20" rx="4" fill="#687082"/>
  <path d="M14.3242 6.30859L13.8594 7.89453H5L5.46484 6.30859H14.3242ZM10.168 17L5.16406 10.875L5.13672 9.72656H7.625C8.27214 9.72656 8.82357 9.63542 9.2793 9.45312C9.73503 9.26628 10.0837 8.98828 10.3252 8.61914C10.5667 8.24544 10.6875 7.77604 10.6875 7.21094C10.6875 6.37695 10.4368 5.72298 9.93555 5.24902C9.43424 4.77051 8.66406 4.53125 7.625 4.53125H5L5.46484 3H7.625C8.73698 3 9.64844 3.18457 10.3594 3.55371C11.0749 3.91829 11.6035 4.4196 11.9453 5.05762C12.2917 5.69108 12.4648 6.40885 12.4648 7.21094C12.4648 7.93555 12.3053 8.60319 11.9863 9.21387C11.6719 9.81999 11.166 10.3076 10.4687 10.6768C9.77604 11.0459 8.86003 11.2305 7.7207 11.2305H7.67969L12.3008 16.8906V17H10.168ZM14.3242 3L13.8594 4.58594L6.88672 4.53125L7.35156 3H14.3242Z" fill="white"/>
</svg>
