<svg width="222" height="356" viewBox="0 0 222 356" fill="none" xmlns="http://www.w3.org/2000/svg">
<path fill-rule="evenodd" clip-rule="evenodd" d="M212.807 155.649C218.721 142.048 222 127.033 222 111.25C222 49.8083 172.304 0 111 0C49.6964 0 0 49.8083 0 111.25C0 172.692 49.6964 222.5 111 222.5C114.77 222.5 118.497 222.311 122.172 221.944L88.8 351.55L180.455 217.292C193.588 198.053 204.442 177.366 212.807 155.649Z" fill="#1BAD03"/>
<path d="M111 186.9C152.686 186.9 186.48 153.03 186.48 111.25C186.48 69.4696 152.686 35.6 111 35.6C69.3131 35.6 35.5195 69.4696 35.5195 111.25C35.5195 153.03 69.3131 186.9 111 186.9Z" fill="white"/>
<g clip-path="url(#clip0_1923_979)">
<path d="M168.564 41.0708H53.221C46.4122 41.0708 40.8926 47.3388 40.8926 55.0708V167.071C40.8926 174.803 46.4122 181.071 53.221 181.071H168.564C175.373 181.071 180.893 174.803 180.893 167.071V55.0708C180.893 47.3388 175.373 41.0708 168.564 41.0708Z" fill="#009846"/>
<path fill-rule="evenodd" clip-rule="evenodd" d="M180.655 52.5075C180.81 53.3391 180.893 54.1959 180.893 55.0709V60.3951L148.055 58.6588C130.337 57.1338 115.269 63.9147 109.886 80.8556L104.424 97.0506L104.424 97.051L104.424 97.0515L104.423 97.051L87.4819 94.7939C69.9056 92.1368 57.1642 102.659 50.7028 119.226L40.8926 142.118V118.846L42.2719 115.624C51.1382 91.9896 63.9096 81.7584 88.6768 85.6879L98.1383 86.9476L101.188 77.9036C108.608 53.9493 123.429 47.0132 148.549 49.5031L178.383 51.0925C179.147 51.5542 179.904 52.0259 180.655 52.5075ZM180.893 69.5484V78.7212L155.457 77.3764C140.771 76.5826 127.372 82.9173 122.681 96.8279L116.215 116L116.215 116.001L116.215 116.001L116.214 116L96.1579 113.329C81.6063 111.391 70.0032 120.61 64.2251 134.136L45.6243 177.54C42.7266 174.97 40.8926 171.225 40.8926 167.071V165.341L55.7935 130.534C64.0013 109.879 75.5534 101.005 97.353 104.223L109.929 105.897L113.984 93.8756C120.73 72.8983 133.796 66.4566 155.951 68.2208L180.893 69.5484ZM180.893 87.8738V97.0493L160.617 95.9772C145.93 95.1832 140.142 98.9589 135.45 112.869L128.003 134.952H128.004L128.003 134.953L128.003 134.952L104.903 131.875C90.3507 129.936 84.4064 133.46 78.6285 146.986L64.0217 181.071H54.8926C54.6169 181.071 54.3435 181.062 54.0716 181.046L70.1965 143.384C77.6676 125.895 87.4644 120.288 106.097 122.768L121.718 124.849L126.754 109.917C132.762 92.1059 142.122 85.7955 161.111 86.8213L180.893 87.8738Z" fill="#009846"/>
<path d="M178.383 51.0925L148.549 49.5031C123.429 47.0132 108.608 53.9493 101.188 77.9036L98.1383 86.9476L88.6768 85.6879C63.9096 81.7584 51.1382 91.9896 42.2719 115.624L40.8926 118.846V142.118L50.7028 119.226C57.1642 102.659 69.9056 92.1368 87.4819 94.7939L104.423 97.051L104.424 97.0515L104.424 97.051L104.424 97.0506L109.886 80.8556C115.269 63.9147 130.337 57.1338 148.055 58.6588L180.893 60.3951V55.0709C180.893 54.1959 180.81 53.3391 180.655 52.5075C179.904 52.0259 179.147 51.5542 178.383 51.0925ZM180.893 69.5484V78.7212L155.457 77.3764C140.771 76.5826 127.372 82.9173 122.681 96.8279L116.215 116L116.215 116.001L116.215 116.001L116.214 116L96.1579 113.329C81.6063 111.391 70.0032 120.61 64.2251 134.136L45.6243 177.54C42.7266 174.97 40.8926 171.225 40.8926 167.071V165.341L55.7935 130.534C64.0013 109.879 75.5534 101.005 97.353 104.223L109.929 105.897L113.984 93.8756C120.73 72.8983 133.796 66.4566 155.951 68.2208L180.893 69.5484ZM180.893 87.8738V97.0493L160.617 95.9772C145.93 95.1832 140.142 98.9589 135.45 112.869L128.003 134.952H128.004L128.003 134.953L128.003 134.952L104.903 131.875C90.3507 129.936 84.4064 133.46 78.6285 146.986L64.0217 181.071H54.8926C54.6169 181.071 54.3435 181.062 54.0716 181.046L70.1965 143.384C77.6676 125.895 87.4644 120.288 106.097 122.768L121.718 124.849L126.754 109.917C132.762 92.1059 142.122 85.7955 161.111 86.8213L180.893 87.8738Z" fill="white" stroke="white" stroke-width="0.755906" stroke-miterlimit="22.9256"/>
</g>
<defs>
<clipPath id="clip0_1923_979">
<rect x="41" y="41" width="140" height="140" rx="70" fill="white"/>
</clipPath>
</defs>
</svg>
