<?xml version="1.0" encoding="UTF-8"?>
<!DOCTYPE svg PUBLIC "-//W3C//DTD SVG 1.1//EN" "http://www.w3.org/Graphics/SVG/1.1/DTD/svg11.dtd">
<!-- Creator: CorelDRAW 2020 (64-Bit) -->
<svg xmlns="http://www.w3.org/2000/svg" xml:space="preserve" width="137.648mm" height="11.592mm" version="1.1" style="shape-rendering:geometricPrecision; text-rendering:geometricPrecision; image-rendering:optimizeQuality; fill-rule:evenodd; clip-rule:evenodd"
viewBox="0 0 8683.38 731.27"
 xmlns:xlink="http://www.w3.org/1999/xlink"
 xmlns:xodm="http://www.corel.com/coreldraw/odm/2003">
 <defs>
  <style type="text/css">
   <![CDATA[
    .fil1 {fill:#009846;fill-rule:nonzero}
    .fil0 {fill:#009846;fill-rule:nonzero}
   ]]>
  </style>
 </defs>
 <g id="Слой_x0020_1">
  <metadata id="CorelCorpID_0Corel-Layer"/>
  <g id="_2387763041728">
   <path class="fil0" d="M789.49 723.1l-277.8 -312.53c-20.43,-22.46 -29.62,-38.81 -29.62,-54.13 0,-19.4 6.13,-34.73 21.45,-53.11l248.19 -295.17 -273.72 0 -192.01 269.64c-15.32,22.46 -22.47,48 -22.47,78.64 0,30.64 2.04,62.3 24.51,89.88l223.67 276.78 277.8 0zm-789.49 0l230.82 0 0 -714.94 -230.82 0 0 714.94z"/>
   <path class="fil1" d="M748.64 723.1l243.08 0 56.17 -147.07 257.38 0 56.17 147.07 243.08 0 -264.53 -636.29c-32.68,-79.66 -96,-86.81 -163.41,-86.81 -110.3,0 -140.94,33.7 -163.41,86.81l-264.52 636.29zm416.71 -501.47c3.06,-7.15 8.17,-15.32 11.23,-15.32 3.07,0 8.18,8.18 11.24,15.32l69.45 197.12 -161.37 0 69.46 -197.12zm1214.36 68.43c7.15,-19.4 11.24,-25.54 15.32,-25.54 8.16,0 8.16,14.3 8.16,23.5l-8.16 435.09 232.86 0 0 -597.48c0,-44.94 -13.28,-125.63 -175.67,-125.63 -60.26,0 -147.07,9.19 -183.84,118.47l-115.41 347.25c-2.04,7.15 -12.26,32.68 -21.45,32.68 -9.19,0 -19.4,-25.54 -21.45,-32.68l-115.41 -347.25c-36.77,-110.31 -122.55,-118.47 -183.83,-118.47 -36.77,0 -175.67,0 -175.67,125.63l0 597.48 232.86 0 -7.15 -435.09c0,-7.15 0,-23.5 8.17,-23.5 5.1,0 10.21,12.26 14.3,25.54l110.3 345.21c16.34,52.09 36.77,96.01 137.88,96.01 101.12,0 121.54,-43.92 137.88,-96.01l110.3 -345.21zm1139.81 433.05l-277.8 -312.53c-20.43,-22.46 -29.62,-38.81 -29.62,-54.13 0,-19.4 6.13,-34.73 21.45,-53.11l248.18 -295.17 -273.72 0 -192.01 269.64c-15.32,22.46 -22.47,48 -22.47,78.64 0,30.64 2.04,62.3 24.51,89.88l223.67 276.78 277.8 0zm-789.49 0l230.82 0 0 -714.94 -230.82 0 0 714.94zm1152.07 -723.1c-296.19,0 -393.22,59.24 -393.22,365.64 0,306.4 97.02,365.64 393.22,365.64 296.18,0 393.21,-59.24 393.21,-365.64 0,-306.4 -97.03,-365.64 -393.21,-365.64zm-156.27 365.64c0,-132.77 33.7,-187.92 156.27,-187.92 122.55,0 156.26,55.15 156.26,187.92 0,132.77 -33.71,187.93 -156.26,187.93 -122.57,0 -156.27,-55.15 -156.27,-187.93zm1375.73 -75.58c7.15,-19.4 11.24,-25.54 15.32,-25.54 8.16,0 8.16,14.3 8.16,23.5l-8.16 435.09 232.86 0 0 -597.48c0,-44.94 -13.28,-125.63 -175.67,-125.63 -60.26,0 -147.07,9.19 -183.84,118.47l-115.41 347.25c-2.04,7.15 -12.26,32.68 -21.45,32.68 -9.19,0 -19.4,-25.54 -21.45,-32.68l-115.41 -347.25c-36.77,-110.31 -122.55,-118.47 -183.83,-118.47 -36.77,0 -175.67,0 -175.67,125.63l0 597.48 232.86 0 -7.15 -435.09c0,-7.15 0,-23.5 8.17,-23.5 5.1,0 10.21,12.26 14.3,25.54l110.3 345.21c16.34,52.09 36.77,96.01 137.88,96.01 101.12,0 121.54,-43.92 137.88,-96.01l110.3 -345.21zm350.32 -167.5l0 488.2c0,71.49 40.85,112.35 112.35,112.35l405.47 0c163.41,0 204.27,-68.43 204.27,-221.63 0,-153.21 -40.86,-223.67 -204.27,-223.67l-287 0 0 -49.03c0,-26.55 1.02,-42.9 43.91,-42.9l402.41 0 0 -177.71 -565.82 0c-25.54,0 -111.32,5.11 -111.32,114.39zm393.22 312.53c61.28,0 91.91,5.11 91.91,56.18 0,51.06 -30.63,54.13 -91.91,54.13l-117.46 0c-30.64,0 -44.93,-12.25 -44.93,-42.89l0 -67.41 162.39 0zm339.08 288.02l243.08 0 56.17 -147.07 257.38 0 56.18 147.07 243.08 0 -264.52 -636.29c-32.68,-79.66 -96.01,-86.81 -163.42,-86.81 -110.3,0 -140.94,33.7 -163.41,86.81l-264.52 636.29zm416.7 -501.47c3.07,-7.15 8.17,-15.32 11.23,-15.32 3.07,0 8.18,8.18 11.24,15.32l69.46 197.12 -161.37 0 69.45 -197.12zm1190.88 -213.46l-230.82 0 0 253.3 -259.41 0 0 -253.3 -230.82 0 0 714.94 230.82 0 0 -283.93 259.41 0 0 283.93 230.82 0 0 -714.94zm891.62 714.94l-277.8 -312.53c-20.43,-22.46 -29.62,-38.81 -29.62,-54.13 0,-19.4 6.13,-34.73 21.45,-53.11l248.19 -295.17 -273.72 0 -192.01 269.64c-15.32,22.46 -22.47,48 -22.47,78.64 0,30.64 2.04,62.3 24.51,89.88l223.67 276.78 277.8 0zm-789.49 0l230.82 0 0 -714.94 -230.82 0 0 714.94z"/>
  </g>
 </g>
</svg>
