<svg width="24" height="24" viewBox="0 0 24 24" fill="none" xmlns="http://www.w3.org/2000/svg">
<path fill-rule="evenodd" clip-rule="evenodd" d="M8.40169 7.6983L7.16269 8.7373C6.95969 8.9073 6.83269 9.1523 6.80969 9.4163C6.78769 9.6783 6.86869 9.9433 7.03969 10.1463C9.10069 12.6043 11.3927 14.8953 13.8507 16.9573C14.0537 17.1273 14.3167 17.2103 14.5807 17.1873C14.8447 17.1643 15.0887 17.0363 15.2597 16.8333L16.2977 15.5943C17.4817 16.3123 18.6967 16.9843 19.9247 17.6013L19.1777 18.7393C18.7697 19.3833 18.1057 19.8133 17.3067 19.9503C16.3657 20.1133 15.3597 19.8413 14.5447 19.2043C10.9127 16.3663 7.63069 13.0853 4.79269 9.4503C4.27669 8.7913 4.00069 8.0053 4.00069 7.2303C4.00069 7.0493 4.01569 6.8673 4.04669 6.6893C4.18369 5.8913 4.61369 5.2273 5.27069 4.8103L6.39569 4.0713C7.01269 5.2993 7.68569 6.5153 8.40169 7.6983ZM5.45169 2.2993L4.18569 3.1303C3.05969 3.8443 2.31069 4.9883 2.07569 6.3493C1.81569 7.8463 2.23269 9.4253 3.21669 10.6823C6.15569 14.4453 9.55269 17.8433 13.3137 20.7803C14.5707 21.7633 16.1507 22.1793 17.6467 21.9213C19.0087 21.6863 20.1517 20.9373 20.8597 19.8233L21.6977 18.5453L21.6997 18.5423C21.8957 18.2423 21.9957 17.8953 21.9957 17.5433C21.9957 17.3823 21.9747 17.2193 21.9317 17.0603C21.7927 16.5503 21.4417 16.1223 20.9677 15.8863C19.4887 15.1503 18.0267 14.3283 16.6197 13.4433C16.1967 13.1773 15.6427 13.2643 15.3207 13.6473L14.3757 14.7753C12.5447 13.1793 10.8177 11.4513 9.22169 9.6213L10.3497 8.6753C10.7317 8.3533 10.8187 7.7983 10.5527 7.3763C9.66969 5.9713 8.84769 4.5093 8.11069 3.0293C7.87469 2.5553 7.44669 2.2033 6.93669 2.0653C6.43169 1.9273 5.89169 2.01229 5.45169 2.2993Z" fill="#009846"/>
</svg>
