<svg width="20" height="20" viewBox="0 0 20 20" fill="none" xmlns="http://www.w3.org/2000/svg">
  <rect width="20" height="20" rx="4" fill="#687082"/>
  <path d="M15.7109 6.22656V7.51562H5V6.22656H15.7109ZM15.7109 8.14844V9.4375H5V8.14844H15.7109ZM10.5078 11.6641H7.64844V10.375H10.5078C11.1484 10.375 11.6562 10.2637 12.0312 10.041C12.4102 9.81445 12.6797 9.50781 12.8398 9.12109C13.0039 8.73047 13.0859 8.28906 13.0859 7.79688C13.0859 7.30469 13.0039 6.87109 12.8398 6.49609C12.6758 6.11719 12.4043 5.82227 12.0254 5.61133C11.6465 5.39648 11.1328 5.28906 10.4844 5.28906H7.92969V16H6.47656V4H10.4844C11.4219 4 12.1875 4.16797 12.7812 4.50391C13.375 4.83594 13.8125 5.28906 14.0938 5.86328C14.375 6.43359 14.5156 7.07813 14.5156 7.79688C14.5156 8.51563 14.375 9.16797 14.0938 9.75391C13.8125 10.3359 13.377 10.8008 12.7871 11.1484C12.1973 11.4922 11.4375 11.6641 10.5078 11.6641Z" fill="white"/>
</svg>
