<svg width="20" height="20" viewBox="0 0 20 20" fill="none" xmlns="http://www.w3.org/2000/svg">
  <rect width="20" height="20" rx="4" fill="#687082"/>
  <path d="M11.7715 11.3125H4.66211V9.80859H11.7715C12.4277 9.80859 12.9701 9.69466 13.3984 9.4668C13.8268 9.23438 14.1458 8.91992 14.3555 8.52344C14.5651 8.1224 14.6699 7.66667 14.6699 7.15625C14.6699 6.64583 14.5651 6.19238 14.3555 5.7959C14.1458 5.39486 13.8268 5.0804 13.3984 4.85254C12.9701 4.62012 12.4277 4.50391 11.7715 4.50391H8.57227V17H6.87695V3H11.7715C12.8105 3 13.6673 3.18913 14.3418 3.56738C15.0163 3.94564 15.5176 4.44922 15.8457 5.07813C16.1738 5.70703 16.3379 6.39974 16.3379 7.15625C16.3379 7.91276 16.1738 8.60547 15.8457 9.23438C15.5176 9.86328 15.0163 10.3669 14.3418 10.7451C13.6673 11.1234 12.8105 11.3125 11.7715 11.3125ZM11.6621 12.625V14.1289H4.66211V12.625H11.6621Z" fill="white"/>
</svg>
