<svg width="20" height="20" viewBox="0 0 20 20" fill="none" xmlns="http://www.w3.org/2000/svg">
<path d="M8.27507 12.1375C8.52507 12.375 8.83757 12.5 9.16257 12.5L9.15007 12.5125C9.47507 12.5125 9.78757 12.4 10.0376 12.15L13.3751 8.81254C13.8626 8.32504 13.8626 7.53754 13.3751 7.05004C12.8876 6.56254 12.1001 6.56254 11.6126 7.05004L9.16257 9.50004L8.37507 8.71254C7.88757 8.22504 7.10007 8.22504 6.61257 8.71254C6.12507 9.20004 6.12507 9.98754 6.61257 10.475L8.27507 12.1375Z" fill="#687082"/>
<path fill-rule="evenodd" clip-rule="evenodd" d="M9.4875 19.8875C9.65 19.9625 9.825 20 10 20C10.175 20 10.35 19.9625 10.5125 19.8875C11.35 19.5125 18.75 16.0625 18.75 11.25V3.75C18.75 3.0625 18.1875 2.5 17.5 2.5C16.8125 2.5 16.25 1.9375 16.25 1.25C16.25 0.5625 15.6875 0 15 0H5C4.3125 0 3.75 0.5625 3.75 1.25C3.75 1.9375 3.1875 2.5 2.5 2.5C1.8125 2.5 1.25 3.0625 1.25 3.75V11.25C1.25 16.0625 8.65 19.5125 9.4875 19.8875ZM3.75 11.25V4.7875C4.8125 4.4125 5.6625 3.5625 6.0375 2.5H13.9625C14.3375 3.5625 15.1875 4.4125 16.25 4.7875V11.25C16.25 13.725 12.05 16.3375 10 17.3625C7.9375 16.3375 3.75 13.7375 3.75 11.25Z" fill="#687082"/>
</svg>
