<svg width="44" height="44" viewBox="0 0 44 44" fill="none" xmlns="http://www.w3.org/2000/svg">
<path fill-rule="evenodd" clip-rule="evenodd" d="M19.6377 29.8691L32.5751 17.4941C33.1238 16.9689 33.143 16.0985 32.6178 15.5499C32.0939 15.0013 31.2221 14.9834 30.6735 15.5073L18.7083 26.9528L14.0346 22.2778C13.497 21.7415 12.6266 21.7415 12.0904 22.2778C11.5527 22.8154 11.5527 23.6857 12.0904 24.2234L17.7155 29.8471C17.9823 30.1166 18.3342 30.25 18.6876 30.25C19.03 30.25 19.371 30.1235 19.6377 29.8691ZM22 4.125C12.1426 4.125 4.125 12.144 4.125 22C4.125 31.8574 12.1426 39.875 22 39.875C31.856 39.875 39.875 31.8574 39.875 22C39.875 12.144 31.856 4.125 22 4.125ZM22 42.625C10.6274 42.625 1.375 33.3726 1.375 22C1.375 10.6274 10.6274 1.375 22 1.375C33.3726 1.375 42.625 10.6274 42.625 22C42.625 33.3726 33.3726 42.625 22 42.625Z" fill="#009846"/>
</svg>
