<svg width="20" height="20" viewBox="0 0 20 20" fill="none" xmlns="http://www.w3.org/2000/svg">
  <rect width="20" height="20" rx="4" fill="#687082"/>
  <path d="M9.54613 17V3H10.4535V17H9.54613ZM12.6003 7.2C12.5339 6.64583 12.2647 6.21563 11.7925 5.90938C11.3204 5.60313 10.7413 5.45 10.0552 5.45C9.55351 5.45 9.11456 5.53021 8.73832 5.69063C8.36577 5.85104 8.07436 6.07161 7.86411 6.35234C7.65755 6.63307 7.55426 6.95208 7.55426 7.30937C7.55426 7.60833 7.62619 7.86536 7.77005 8.08047C7.9176 8.29193 8.10572 8.46875 8.33441 8.61094C8.56311 8.74948 8.80287 8.86432 9.0537 8.95547C9.30453 9.04297 9.53507 9.11406 9.74532 9.16875L10.8962 9.475C11.1913 9.55156 11.5196 9.65729 11.881 9.79219C12.2462 9.92708 12.5948 10.1112 12.9268 10.3445C13.2624 10.5742 13.5391 10.8695 13.7567 11.2305C13.9744 11.5914 14.0832 12.0344 14.0832 12.5594C14.0832 13.1646 13.9227 13.7115 13.6018 14.2C13.2846 14.6885 12.8198 15.0768 12.2075 15.3648C11.5989 15.6529 10.8593 15.7969 9.98877 15.7969C9.17727 15.7969 8.47458 15.6674 7.88071 15.4086C7.29053 15.1497 6.82576 14.7888 6.4864 14.3258C6.15073 13.8628 5.96077 13.325 5.9165 12.7125H7.33294C7.36983 13.1354 7.51369 13.4854 7.76452 13.7625C8.01903 14.0359 8.33995 14.2401 8.72725 14.375C9.11825 14.5063 9.53876 14.5719 9.98877 14.5719C10.5126 14.5719 10.9829 14.488 11.3997 14.3203C11.8165 14.149 12.1466 13.912 12.3901 13.6094C12.6335 13.3031 12.7553 12.9458 12.7553 12.5375C12.7553 12.1656 12.6501 11.863 12.4399 11.6297C12.2296 11.3964 11.953 11.2068 11.6099 11.0609C11.2669 10.9151 10.8962 10.7875 10.4978 10.6781L9.1035 10.2844C8.21822 10.0328 7.51738 9.6737 7.00097 9.20703C6.48456 8.74036 6.22635 8.12969 6.22635 7.375C6.22635 6.74792 6.39787 6.20104 6.74092 5.73438C7.08765 5.26406 7.55242 4.89948 8.13523 4.64063C8.72172 4.37813 9.37646 4.24688 10.0994 4.24688C10.8298 4.24688 11.479 4.3763 12.047 4.63516C12.6151 4.89036 13.0651 5.24036 13.3971 5.68516C13.7327 6.12995 13.9098 6.6349 13.9282 7.2H12.6003Z" fill="white"/>
</svg>
