<svg width="927" height="798" viewBox="0 0 927 798" fill="none" xmlns="http://www.w3.org/2000/svg">
<path d="M294.879 630.439C294.879 711.863 186.678 849.242 147.439 777.879C70.2716 637.597 0 711.863 0 630.439C0 549.016 66.016 483 147.439 483C228.863 483 294.879 549.016 294.879 630.439Z" fill="url(#paint0_linear_16_1930)"/>
<path d="M577.276 147.706C638.175 75.8347 836.434 35.4995 817.695 127.839C780.888 309.38 898.462 296.386 837.562 368.258C776.662 440.129 669.015 449.025 597.143 388.125C525.272 327.226 516.376 219.578 577.276 147.706Z" fill="url(#paint1_linear_16_1930)"/>
<path d="M193.044 230.273C187.687 223.425 178.52 216.936 164.962 210.365C164.355 210.088 163.527 209.674 162.422 209.094C151.35 203.738 144.999 197.829 144.999 192.859C144.999 189.683 145.827 187.364 147.622 185.597C148.754 184.465 150.19 183.664 151.957 183.139C154.056 184.52 156.099 186.895 158.032 190.208L161.18 195.592L173.025 196.862L199.394 181.262L197.434 175.242C194.48 166.213 189.068 159.283 181.419 154.589C177.581 152.242 173.191 150.53 168.386 149.48V138.298L156.458 137L131.331 137.58V148.652C130.889 148.763 130.448 148.901 129.951 149.039L129.481 149.177C128.736 149.398 128.156 149.591 127.548 149.812C126.969 150.005 126.389 150.254 125.671 150.53C125.505 150.585 125.367 150.668 125.201 150.723C124.539 150.999 123.959 151.275 123.434 151.524H123.379C122.882 151.772 122.413 152.021 121.916 152.269C121.833 152.324 121.75 152.352 121.639 152.407L121.474 152.49C121.142 152.656 120.811 152.849 120.48 153.042C120.342 153.125 120.204 153.208 120.066 153.291L119.955 153.346C119.651 153.512 119.375 153.705 119.099 153.871C118.934 153.981 118.74 154.092 118.547 154.202C118.271 154.395 117.995 154.561 117.691 154.782C117.525 154.892 117.36 155.03 117.194 155.141C116.918 155.334 116.642 155.555 116.366 155.748L116.228 155.859C116.228 155.859 116.007 156.024 115.896 156.107C115.592 156.356 115.261 156.604 114.957 156.853L114.626 157.129C114.212 157.46 113.798 157.819 113.384 158.178L113.08 158.482C112.776 158.758 112.5 159.034 112.196 159.31L112.086 159.421C111.81 159.697 111.534 159.973 111.257 160.249C110.843 160.691 110.401 161.16 109.877 161.712L109.601 162.044C109.159 162.541 108.745 163.038 108.358 163.535L108.165 163.783C107.806 164.253 107.447 164.722 107.088 165.192L106.895 165.44C106.536 165.937 106.204 166.462 105.818 167.042L105.569 167.401C105.183 168.036 104.851 168.56 104.575 169.085V169.14C104.244 169.637 103.968 170.189 103.637 170.824C103.554 170.99 103.498 171.156 103.416 171.294C103.14 171.818 102.919 172.343 102.67 172.868L102.56 173.089C102.311 173.641 102.063 174.248 101.814 174.911C101.759 175.049 101.704 175.187 101.648 175.325V175.38C101.428 175.905 101.262 176.43 101.069 176.954L100.958 177.313C100.765 177.921 100.572 178.556 100.406 179.218L100.296 179.688C100.157 180.212 100.019 180.765 99.8813 181.317L99.7709 181.786C99.6328 182.449 99.4948 183.139 99.3843 183.802L99.3015 184.216C99.2186 184.796 99.1082 185.376 99.053 185.956L98.9977 186.48C98.9149 187.226 98.8321 187.916 98.7769 188.579V188.855C98.7216 189.49 98.6664 190.125 98.6388 190.76C98.6388 190.953 98.6388 191.147 98.6388 191.34C98.6112 192.196 98.5836 192.886 98.5836 193.549C98.5836 204.041 101.455 213.043 107.088 220.305C112.389 227.125 122.275 234.194 137.351 241.953C138.179 242.339 139.422 242.974 141.133 243.885C147.788 247.199 155.713 252.445 155.713 258.685C155.713 259.1 155.713 259.569 155.657 260.094C155.657 260.204 155.657 260.314 155.657 260.48C155.657 260.811 155.602 261.17 155.547 261.502L155.492 261.805C155.436 262.22 155.354 262.634 155.271 262.993L155.215 263.214C155.133 263.517 155.05 263.821 154.939 264.097C154.939 264.208 154.884 264.318 154.829 264.401C154.718 264.732 154.58 265.036 154.47 265.312L154.415 265.45C154.277 265.754 154.111 266.085 153.918 266.417L153.835 266.582C153.642 266.886 153.448 267.19 153.255 267.466L153.172 267.576C152.924 267.908 152.675 268.184 152.454 268.432C152.344 268.57 152.206 268.681 152.068 268.791C151.874 268.985 151.681 269.15 151.488 269.316L151.377 269.426C151.184 269.564 151.018 269.702 150.853 269.841L150.687 269.951C150.466 270.089 150.245 270.255 149.969 270.393H149.886C149.693 270.558 149.472 270.669 149.251 270.752L149.058 270.862C148.92 270.917 148.782 271 148.616 271.055L148.395 271.138C148.23 271.194 148.036 271.276 147.871 271.332L147.733 271.387C147.512 271.47 147.263 271.525 147.042 271.608L146.849 271.663C146.683 271.718 146.49 271.746 146.297 271.801L146.021 271.856C145.855 271.884 145.689 271.911 145.524 271.939L145.137 271.994C142.376 272.077 141.106 272.657 140.195 271.939C137.323 269.758 133.54 269.067 132.408 264.539L131.994 262.358L130.53 252.279L122.081 250.816L94 263.517L95.2149 271.608C97.7 283.453 103.112 292.648 111.34 298.971C116.89 303.251 123.6 306.04 131.248 307.227V317.747L143.204 319.045L168.248 318.465V306.785C176.035 304.466 182.745 300.379 188.184 294.636C197.103 285.248 201.603 272.767 201.631 257.553C201.631 246.729 198.759 237.562 193.071 230.3L193.044 230.273Z" fill="url(#paint2_linear_16_1930)"/>
<path d="M195.695 231.488C189.869 224.613 179.846 217.958 165.018 211.138C164.355 210.834 163.416 210.393 162.202 209.813C149.472 203.959 142.459 197.774 142.459 192.417C142.459 188.993 143.453 186.536 145.607 184.631C147.926 182.588 151.322 181.538 155.713 181.538C158.778 181.538 161.456 182.229 163.72 183.609C166.178 185.1 168.525 187.641 170.761 191.12L174.019 196.228L202.266 181.649L200.306 176.182C197.103 167.263 191.277 160.332 182.993 155.583C178.658 153.098 173.688 151.276 168.193 150.144V139.044H141.465V149.978C132.767 151.745 125.257 155.473 119.127 161.078C110.015 169.389 105.404 180.323 105.404 193.577C105.404 203.904 108.496 212.823 114.626 220.084C120.397 226.932 131.138 234.111 147.484 242.091L147.733 242.202C148.672 242.616 150.025 243.251 151.847 244.162L151.93 244.217C159.496 247.779 168.497 253.44 168.497 260.094C168.497 264.567 167.255 267.825 164.631 270.31C161.898 272.878 158.143 274.121 153.145 274.121C147.484 274.121 142.901 272.878 139.477 270.448C136.164 268.074 133.899 264.595 132.602 259.846L130.531 252.307L100.461 266.224L101.676 271.47C104.382 283.178 110.264 292.372 119.155 298.778C125.367 303.251 132.878 306.151 141.465 307.448V317.941H168.193V306.427C176.891 304.356 184.374 300.435 190.421 294.775C200.085 285.745 205 273.513 205 258.465C205 247.834 201.88 238.75 195.722 231.488H195.695Z" fill="url(#paint3_linear_16_1930)"/>
<path d="M192.464 233.972C186.997 227.539 177.416 221.216 163.14 214.644C162.45 214.34 161.511 213.899 160.296 213.319C145.717 206.609 138.317 199.596 138.317 192.444C138.317 187.916 139.781 184.409 142.763 181.758C145.8 179.08 150.052 177.699 155.437 177.699C159.219 177.699 162.588 178.583 165.46 180.35C168.414 182.145 171.203 185.099 173.743 189.076L175.096 191.229L197.213 179.798L196.385 177.506C193.513 169.471 188.24 163.231 180.784 158.951C175.98 156.19 170.375 154.34 164.052 153.373V142.881H145.027V153.208C135.694 154.533 127.77 158.123 121.446 163.893C113.163 171.459 108.993 181.427 108.993 193.549C108.993 202.937 111.782 211.027 117.305 217.571C122.717 224.005 133.043 230.88 148.92 238.611L149.031 238.666C150.025 239.108 151.461 239.771 153.283 240.71H153.338C165.791 246.619 172.114 253.135 172.114 260.121C172.114 265.643 170.457 269.895 167.034 273.126C163.582 276.384 158.943 277.986 152.896 277.986C146.408 277.986 141.078 276.522 136.992 273.595C132.933 270.696 130.199 266.527 128.625 260.894L127.77 257.719L104.658 268.432L105.183 270.641C107.668 281.437 113.052 289.859 121.17 295.685C127.659 300.351 135.694 303.168 145.082 304.079V314.13H164.107V303.333C173.44 301.621 181.281 297.839 187.549 291.985C196.413 283.701 200.886 272.436 200.886 258.492C200.886 248.8 198.069 240.544 192.519 234L192.464 233.972Z" fill="url(#paint4_linear_16_1930)"/>
<path style="mix-blend-mode:hard-light" opacity="0.5" d="M127.383 177.782C131.055 181.261 135.335 183.664 139.919 185.293C140.637 183.995 141.548 182.808 142.735 181.758C145.773 179.08 150.025 177.699 155.409 177.699C159.192 177.699 162.561 178.583 165.432 180.35C168.387 182.145 171.175 185.099 173.716 189.076L175.069 191.229L197.186 179.798L196.357 177.506C193.486 169.471 188.212 163.231 180.757 158.951C175.952 156.19 170.347 154.34 164.024 153.373V142.881H144.999V153.208C135.667 154.533 127.742 158.123 121.419 163.893C121.115 164.17 120.839 164.446 120.535 164.749C121.446 169.747 123.655 174.193 127.411 177.755L127.383 177.782Z" fill="url(#paint5_linear_16_1930)"/>
<path style="mix-blend-mode:hard-light" opacity="0.5" d="M189.675 231.073C186.362 231.542 183.076 232.315 179.873 233.447C173.522 235.684 167.889 239.412 163.61 244.63C163.251 245.072 162.892 245.541 162.56 245.983C168.856 250.401 172.031 255.123 172.031 260.093C172.031 265.615 170.375 269.895 166.951 273.098C163.499 276.356 158.86 277.958 152.813 277.958C146.325 277.958 140.996 276.494 136.909 273.567C132.85 270.668 130.116 266.499 128.543 260.866L127.687 257.691L104.575 268.404L105.1 270.613C107.585 281.409 112.969 289.831 121.087 295.657C127.576 300.323 135.611 303.14 144.999 304.051V314.102H164.024V303.305C173.357 301.594 181.198 297.811 187.466 291.957C196.33 283.673 200.803 272.408 200.803 258.464C200.803 248.772 197.986 240.516 192.436 233.972C191.608 233.006 190.669 232.039 189.675 231.073Z" fill="url(#paint6_linear_16_1930)"/>
<path style="mix-blend-mode:soft-light" d="M125.312 224.916C124.511 222.486 123.931 219.946 123.627 217.295C122.716 209.287 123.213 200.728 125.367 192.914C127.3 185.9 131.386 179.439 136.412 174.22C145.772 164.556 158.28 158.482 171.175 154.92C168.911 154.257 166.508 153.732 163.996 153.346V142.881H144.971V153.208C135.638 154.533 127.714 158.123 121.391 163.893C113.107 171.459 108.938 181.427 108.938 193.549C108.938 202.937 111.727 211.027 117.249 217.571C119.265 219.946 121.943 222.375 125.312 224.916Z" fill="url(#paint7_linear_16_1930)"/>
<path style="mix-blend-mode:soft-light" d="M190.559 288.754C192.354 283.121 193.182 277.184 192.492 271.248C191.525 263.185 188.019 255.343 182.551 249.324C172.942 238.804 158.64 234.69 144.806 236.54C146.131 237.202 147.484 237.893 148.893 238.583L149.003 238.638C149.997 239.08 151.433 239.743 153.255 240.681H153.31C165.763 246.59 172.086 253.107 172.086 260.093C172.086 265.615 170.43 269.867 167.006 273.098C163.554 276.356 158.916 277.957 152.869 277.957C146.38 277.957 141.051 276.494 136.964 273.567C132.905 270.668 130.172 266.499 128.598 260.866L127.742 257.69L104.631 268.404L105.155 270.613C107.64 281.409 113.025 289.831 121.143 295.657C127.631 300.323 135.666 303.139 145.054 304.051V314.101H164.079V303.305C173.412 301.593 181.254 297.81 187.522 291.957C188.626 290.935 189.648 289.858 190.614 288.754H190.559Z" fill="url(#paint8_linear_16_1930)"/>
<path style="mix-blend-mode:hard-light" opacity="0.5" d="M142.431 168.753C145.855 171.376 148.699 174.552 151.018 178.058C152.371 177.837 153.835 177.699 155.381 177.699C159.164 177.699 162.533 178.583 165.404 180.35C168.359 182.145 171.147 185.099 173.688 189.076L175.041 191.229L197.158 179.798L196.329 177.506C193.458 169.471 188.184 163.231 180.729 158.951C175.924 156.19 170.319 154.34 163.996 153.373V142.881H144.971V153.208C137.323 154.285 130.641 156.88 124.98 160.967C131.248 162.292 137.212 164.749 142.404 168.726L142.431 168.753Z" fill="url(#paint9_linear_16_1930)"/>
<path style="mix-blend-mode:hard-light" opacity="0.5" d="M132.381 269.04C130.724 266.748 129.454 264.07 128.57 260.895L127.714 257.719L104.603 268.433L105.128 270.642C107.613 281.438 112.997 289.86 121.115 295.686C124.346 298.005 127.908 299.855 131.856 301.263C130.061 290.743 130.393 279.754 132.408 269.068L132.381 269.04Z" fill="url(#paint10_linear_16_1930)"/>
<path style="mix-blend-mode:hard-light" opacity="0.5" d="M169.242 217.599C161.897 218.482 154.608 220.36 148.091 223.949C144.502 225.938 141.603 228.367 139.477 231.929C139.2 232.399 138.924 232.868 138.676 233.337C141.768 235.049 145.165 236.817 148.865 238.611L148.975 238.667C149.969 239.108 151.405 239.771 153.227 240.71H153.282C165.735 246.619 172.059 253.135 172.059 260.121C172.059 265.643 170.402 269.896 166.978 273.126C164.879 275.087 162.394 276.44 159.412 277.213C159.882 278.069 160.379 278.952 160.876 279.781C164.631 286.187 169.021 293.283 175.427 297.314C176.228 297.811 177.029 298.281 177.885 298.722C181.419 296.9 184.622 294.663 187.494 291.985C196.357 283.702 200.83 272.436 200.83 258.492C200.83 248.8 198.014 240.544 192.464 234C187.825 228.533 180.204 223.149 169.242 217.626V217.599Z" fill="url(#paint11_linear_16_1930)"/>
<path d="M192.464 233.972C186.997 227.539 177.416 221.216 163.14 214.644C162.45 214.34 161.511 213.899 160.296 213.319C145.717 206.609 138.317 199.596 138.317 192.444C138.317 187.916 139.781 184.409 142.763 181.758C145.8 179.08 150.052 177.699 155.437 177.699C159.219 177.699 162.588 178.583 165.46 180.35C168.414 182.145 171.203 185.099 173.743 189.076L175.096 191.229L197.213 179.798L196.385 177.506C193.513 169.471 188.24 163.231 180.784 158.951C175.98 156.19 170.375 154.34 164.052 153.373V142.881H145.027V153.208C135.694 154.533 127.77 158.123 121.446 163.893C113.163 171.459 108.993 181.427 108.993 193.549C108.993 202.937 111.782 211.027 117.305 217.571C122.717 224.005 133.043 230.88 148.92 238.611L149.031 238.666C150.025 239.108 151.461 239.771 153.283 240.71H153.338C165.791 246.619 172.114 253.135 172.114 260.121C172.114 265.643 170.457 269.895 167.034 273.126C163.582 276.384 158.943 277.986 152.896 277.986C146.408 277.986 141.078 276.522 136.992 273.595C132.933 270.696 130.199 266.527 128.625 260.894L127.77 257.719L104.658 268.432L105.183 270.641C107.668 281.437 113.052 289.859 121.17 295.685C127.659 300.351 135.694 303.168 145.082 304.079V314.13H164.107V303.333C173.44 301.621 181.281 297.839 187.549 291.985C196.413 283.701 200.886 272.436 200.886 258.492C200.886 248.8 198.069 240.544 192.519 234L192.464 233.972Z" fill="url(#paint12_linear_16_1930)"/>
<g clip-path="url(#clip0_16_1930)">
<rect x="172" y="227" width="529.61" height="420.707" rx="27.5122" fill="url(#paint13_linear_16_1930)"/>
<rect x="126.544" y="250.124" width="554.332" height="375.551" rx="25.8613" stroke="#D0BFF5" stroke-width="2.24881" stroke-dasharray="15.74 15.74"/>
<path d="M219 253.365H654.61C667.272 253.365 677.537 263.63 677.537 276.292V601.853C677.537 614.515 667.272 624.78 654.61 624.78H219V253.365Z" fill="url(#paint14_linear_16_1930)"/>
<path d="M217.854 346.884H227.615V316.762H217.854V346.884ZM251.25 346.884L239.503 333.721C238.637 332.774 238.251 332.09 238.251 331.443C238.251 330.627 238.515 329.981 239.155 329.202L249.65 316.771H238.072L229.949 328.134C229.3 329.081 228.998 330.159 228.998 331.443C228.998 332.727 229.083 334.068 230.034 335.231L239.493 346.893H251.24L251.25 346.884Z" fill="url(#paint15_linear_16_1930)"/>
<path d="M551.73 346.883H561.491V316.761H551.73V346.883ZM585.126 346.883L573.379 333.721C572.513 332.774 572.127 332.09 572.127 331.443C572.127 330.627 572.391 329.98 573.031 329.202L583.526 316.771H571.948L563.825 328.133C563.176 329.08 562.875 330.158 562.875 331.443C562.875 332.727 562.959 334.068 563.91 335.23L573.37 346.893H585.117L585.126 346.883ZM547.419 316.761H537.658V327.43H526.683V316.761H516.922V346.883H526.683V334.921H537.658V346.883H547.419V316.761ZM497.052 325.752C497.184 325.452 497.4 325.105 497.523 325.105C497.645 325.105 497.871 325.452 497.993 325.752L500.93 334.058H494.106L497.043 325.752H497.052ZM489.71 346.874L492.082 340.677H502.973L505.345 346.874H515.623L504.432 320.071C503.048 316.714 500.375 316.414 497.523 316.414C492.854 316.414 491.564 317.83 490.614 320.071L479.422 346.874H489.71ZM465.087 334.743C467.675 334.743 468.974 334.958 468.974 337.105C468.974 339.252 467.675 339.383 465.087 339.383H460.117C458.818 339.383 458.215 338.868 458.215 337.574V334.733H465.087V334.743ZM448.454 321.58V342.149C448.454 345.158 450.186 346.883 453.208 346.883H470.358C477.267 346.883 478.999 344.005 478.999 337.546C478.999 331.086 477.267 328.124 470.358 328.124H458.215V326.061C458.215 324.946 458.262 324.252 460.07 324.252H477.088V316.761H453.161C452.078 316.761 448.454 316.977 448.454 321.58ZM433.639 328.64C433.94 327.824 434.11 327.561 434.288 327.561C434.637 327.561 434.637 328.161 434.637 328.555L434.288 346.883H444.134V321.711C444.134 319.818 443.569 316.424 436.707 316.424C434.157 316.424 430.486 316.808 428.933 321.411L424.047 336.036C423.963 336.336 423.53 337.415 423.144 337.415C422.758 337.415 422.325 336.336 422.24 336.036L417.355 321.411C415.802 316.761 412.169 316.424 409.58 316.424C408.027 316.424 402.154 316.424 402.154 321.711V346.883H411.999L411.698 328.555C411.698 328.255 411.698 327.561 412.046 327.561C412.263 327.561 412.479 328.077 412.649 328.64L417.317 343.18C418.005 345.374 418.87 347.221 423.153 347.221C427.436 347.221 428.293 345.374 428.989 343.18L433.658 328.64H433.639ZM375.45 331.827C375.45 326.23 376.871 323.915 382.058 323.915C387.244 323.915 388.665 326.24 388.665 331.827C388.665 337.415 387.244 339.74 382.058 339.74C376.871 339.74 375.45 337.415 375.45 331.827ZM382.058 316.424C369.529 316.424 365.425 318.918 365.425 331.827C365.425 344.736 369.529 347.23 382.058 347.23C394.586 347.23 398.69 344.736 398.69 331.827C398.69 318.918 394.586 316.424 382.058 316.424ZM333.328 346.883H343.089V316.761H333.328V346.883ZM366.724 346.883L354.977 333.721C354.111 332.774 353.726 332.09 353.726 331.443C353.726 330.627 353.989 329.98 354.629 329.202L365.124 316.771H353.547L345.424 328.133C344.774 329.08 344.473 330.158 344.473 331.443C344.473 332.727 344.558 334.068 345.508 335.23L354.968 346.893H366.715L366.724 346.883ZM318.513 328.64C318.814 327.824 318.983 327.561 319.162 327.561C319.511 327.561 319.511 328.161 319.511 328.555L319.162 346.883H329.008V321.711C329.008 319.818 328.443 316.424 321.581 316.424C319.03 316.424 315.36 316.808 313.806 321.411L308.921 336.036C308.837 336.336 308.404 337.415 308.018 337.415C307.632 337.415 307.199 336.336 307.114 336.036L302.229 321.411C300.676 316.761 297.043 316.424 294.454 316.424C292.901 316.424 287.027 316.424 287.027 321.711V346.883H296.873L296.572 328.555C296.572 328.255 296.572 327.561 296.92 327.561C297.137 327.561 297.353 328.077 297.523 328.64L302.191 343.18C302.878 345.374 303.744 347.221 308.027 347.221C312.31 347.221 313.166 345.374 313.863 343.18L318.532 328.64H318.513ZM267.148 325.761C267.28 325.461 267.496 325.115 267.619 325.115C267.741 325.115 267.967 325.461 268.089 325.761L271.026 334.068H264.202L267.139 325.761H267.148ZM259.806 346.883L262.178 340.686H273.068L275.44 346.883H285.719L274.527 320.08C273.144 316.724 270.471 316.424 267.619 316.424C262.95 316.424 261.66 317.839 260.71 320.08L249.518 346.883H259.806Z" fill="url(#paint16_linear_16_1930)"/>
<path d="M385.788 720.085L376.738 620.022C373.931 575.932 357.372 552.007 313.675 544.57L288.575 539.931L288.321 514.716C288.503 470.917 267.541 450.653 224.067 440.244L125.527 413.931L105.417 427.384L219.302 457.84C247.881 465.447 269.554 485.721 269.845 514.898L270.25 555.11L310.271 562.501C339.313 567.864 355.75 592.47 358.354 621.591L368.876 737.411L385.78 720.078L385.788 720.085ZM84.9599 440.749L202.596 472.164C239.555 482.004 253.513 499.724 253.892 537.08L254.208 568.397L285.382 574.155C322.566 581.024 337.802 597.693 341.18 635.347L352.017 755.16L335.113 772.493L322.804 636.923C320.193 607.802 311.021 597.458 281.987 592.094L235.892 583.583L235.425 537.261C235.133 508.084 226.417 497.366 197.838 489.759L64.8173 454.189L84.9678 440.749L84.9599 440.749ZM419.559 685.003L411.893 600.253C409.685 550.122 391.642 522.888 341.822 514.95L322.942 511.466L322.753 492.492C323.511 442.654 299.491 420.367 249.9 409.497L166.149 387.123L146.032 400.577L245.133 427.076C279.967 435.181 304.558 457.333 304.277 492.658L304.616 526.629L338.426 532.873C373.693 538.751 391.499 566.52 393.517 601.813L402.647 702.328L419.55 684.988L419.559 685.003Z" fill="url(#paint17_linear_16_1930)" fill-opacity="0.8"/>
</g>
<path d="M575.512 410.414C575.512 397.752 585.777 387.488 598.439 387.488H700.463C701.097 387.488 701.61 386.974 701.61 386.341V378.922C701.61 375.967 699.388 373.485 696.451 373.158L712.878 374.843C716.765 375.242 720.485 376.627 723.686 378.868L726.221 380.642C732.35 384.933 736 391.943 736 399.425V466.585C736 479.247 725.735 489.512 713.073 489.512H598.439C585.777 489.512 575.512 479.247 575.512 466.585V410.414Z" fill="url(#paint18_linear_16_1930)"/>
<path d="M583.537 413.509C583.537 400.847 593.801 390.582 606.463 390.582H698.654C699.246 390.582 699.726 390.102 699.726 389.509V382.49C699.726 379.766 697.68 377.476 694.973 377.171L709.574 378.692C713.505 379.101 717.263 380.52 720.484 382.81L721.774 383.727C727.822 388.028 731.415 394.99 731.415 402.412V463.146C731.415 475.808 721.15 486.073 708.488 486.073H606.463C593.801 486.073 583.537 475.808 583.537 463.146V413.509Z" fill="url(#paint19_linear_16_1930)" fill-opacity="0.6"/>
<circle cx="630.537" cy="441.366" r="32.0976" fill="url(#paint20_radial_16_1930)"/>
<circle cx="631.11" cy="441.939" r="20.061" fill="url(#paint21_radial_16_1930)" fill-opacity="0.1"/>
<path d="M693 371H701.5V385.854C701.5 386.487 700.987 387 700.354 387H693V371Z" fill="url(#paint22_linear_16_1930)"/>
<path d="M125.932 677.664C125.932 677.664 101.484 594.259 172 545.5V518C172 518 80.6408 553.351 94.4438 644.796C94.4438 644.796 99.2921 678.82 125.932 677.664Z" fill="url(#paint23_linear_16_1930)"/>
<path d="M606 469.947L597.477 375L503.116 388.492L536.381 414.821C520.352 442.531 499.475 469.688 475.475 493.982C434.256 535.684 386.722 571.899 338.032 598.712C329.198 603.577 320.088 608.702 311.358 613.723C285.184 628.751 259.493 644.745 231.956 657.236C206.214 668.934 173.363 684.601 144.325 680.719C110.939 676.25 91.8042 647.247 95.3584 615.034C96.2211 607.166 97.6877 598.142 100.69 590.775C105.659 578.594 111.715 566.585 120.307 556.682C100.673 577.334 88.1464 597.539 85.6273 623.247C82.8322 651.715 89.4404 676.026 104.192 691.658C115.425 703.563 130.867 709.791 148.983 709.791C150.053 709.791 151.123 709.774 152.209 709.722C216.876 707.134 276.109 673.455 328.37 643.727C337.446 638.568 346.003 633.702 354.63 628.94C406.184 600.558 456.445 562.272 499.976 518.24C524.769 493.153 546.526 465.168 563.659 436.44L605.983 469.93L606 469.947Z" fill="url(#paint24_linear_16_1930)"/>
<path d="M583.416 128.172L583.485 125.76L618.487 52.4812L611.99 49.8272L582.882 50.3098L564.597 86.5698L547.053 52.2227L542.606 49H510L546.674 123.571L548.811 128.758L535.661 128.982L535.248 143.252L541.745 145.906L548.328 145.802L548.276 147.56L535.127 147.784L534.713 162.054L541.21 164.725L547.794 164.605L547.311 181.373L553.791 184.027L581.848 183.286L582.399 164.036L595.859 163.812L596.273 149.542L589.793 146.871L582.882 146.992L582.934 145.217L596.393 144.992L596.807 130.723L590.327 128.069L583.416 128.172Z" fill="url(#paint25_linear_16_1930)"/>
<path d="M583.83 125.605L618.642 52.2229H587.862L567.613 92.4639L547.053 52.2229H516.687L554.17 125.605V130.844H540.28V145.251H554.17V149.818H540.28V164.226H554.17V183.924L583.83 183.648V164.226H598.048V149.818H583.83V145.251H598.048V130.844H583.83V125.605Z" fill="url(#paint26_linear_16_1930)"/>
<path d="M588.81 53.8251L567.578 96.0135L546.036 53.8251H519.272L555.738 125.208V182.303L582.175 182.062V125.242L616.057 53.8251H588.81Z" fill="url(#paint27_linear_16_1930)"/>
<path d="M596.41 132.446H541.848V143.631H596.41V132.446Z" fill="url(#paint28_linear_16_1930)"/>
<path d="M596.41 151.438H541.848V162.622H596.41V151.438Z" fill="url(#paint29_linear_16_1930)"/>
<path d="M588.81 53.8251L567.578 96.0135L546.036 53.8251H519.272L555.738 125.208V182.303L582.175 182.062V125.242L616.057 53.8251H588.81Z" fill="url(#paint30_linear_16_1930)"/>
<path d="M596.41 132.446H541.848V143.631H596.41V132.446Z" fill="url(#paint31_linear_16_1930)"/>
<path d="M596.41 151.438H541.848V162.622H596.41V151.438Z" fill="url(#paint32_linear_16_1930)"/>
<path style="mix-blend-mode:soft-light" d="M590.327 53.8251C590.93 56.5136 591.275 59.2538 591.361 62.0112C591.689 72.9202 588.621 83.743 584.106 93.5836C580.487 101.511 575.575 108.663 567.716 112.868C563.511 115.109 558.944 116.522 554.274 117.332C553.481 117.47 552.706 117.59 551.913 117.711L555.739 125.19V182.286L582.176 182.045V125.225L616.057 53.8251H590.327Z" fill="url(#paint33_linear_16_1930)"/>
<path d="M596.411 132.446H541.848V143.631H596.411V132.446Z" fill="url(#paint34_linear_16_1930)"/>
<path d="M596.411 151.438H541.848V162.623H596.411V151.438Z" fill="url(#paint35_linear_16_1930)"/>
<path style="mix-blend-mode:soft-light" opacity="0.5" d="M541.969 94.6525C540.711 89.1204 540.28 83.3988 540.693 77.7289C541.279 69.853 543.399 62.2184 546.639 55.0664L546.019 53.8428H519.272L544.864 103.942C543.709 100.908 542.675 97.8063 541.969 94.6525Z" fill="url(#paint36_linear_16_1930)"/>
<path opacity="0.5" d="M596.411 143.631V142.459C595.032 142.27 593.636 142.08 592.257 141.856C586.484 140.943 580.728 139.753 575.178 137.944C570.594 136.445 566.165 134.652 562.356 131.619C559.616 129.43 557.255 126.88 555.17 124.071L555.739 125.191V132.429H541.848V143.614H555.739V151.404H541.848V162.588H555.739V182.287L582.175 182.045V162.606H596.411V151.421H582.175V143.631H596.411Z" fill="url(#paint37_linear_16_1930)"/>
<path d="M588.81 53.8251L567.578 96.0135L546.036 53.8251H519.272L555.738 125.208V182.303L582.175 182.062V125.242L616.057 53.8251H588.81Z" fill="url(#paint38_linear_16_1930)"/>
<path d="M596.41 132.446H541.848V143.631H596.41V132.446Z" fill="#F29E30"/>
<path d="M596.41 151.438H541.848V162.622H596.41V151.438Z" fill="#F29E30"/>
<path d="M679.021 719.458C677.522 712.875 672.61 706.361 664.855 705.637C664.906 705.637 664.958 705.637 665.01 705.637C660.77 705.206 656.531 704.775 652.291 704.327C651.636 704.258 650.982 704.241 650.292 704.258C648.207 704.31 646.035 704.792 643.864 705.671L643.192 705.982C636.677 709.359 629.663 711.169 622.356 711.359C622.218 711.359 622.08 711.359 621.942 711.359C614.342 709.566 607.88 705.982 602.899 700.915L651.378 699.657V674.668L638.642 673.358L591.697 674.582C591.628 673.548 591.576 672.514 591.559 671.462L651.361 669.894V644.905L638.625 643.595L599.47 644.612C606.897 634.565 619.151 628.533 634.678 628.05C636.298 628.447 637.901 628.929 639.469 629.498C640.658 629.929 641.83 630.411 642.985 630.945L643.485 631.17L644.019 631.325C644.45 631.445 645.363 631.687 646.604 631.824C650.637 632.238 654.652 632.652 658.685 633.065C658.875 633.082 659.133 633.117 659.323 633.134C659.271 633.134 659.237 633.134 659.185 633.134C659.857 633.203 660.632 633.255 661.494 633.238C667.957 633.065 675.643 628.877 677.987 617.624C678.728 615.435 679.952 610.248 677.47 604.785C675.143 599.701 670.49 596.081 663.631 594.048C657.634 591.928 651.412 590.567 645.07 589.946C645.191 589.946 645.312 589.963 645.449 589.981C641.21 589.55 636.97 589.119 632.731 588.671C629.284 588.309 625.803 588.188 622.27 588.275C621.529 588.292 620.788 588.326 620.047 588.361C619.857 588.361 619.685 588.378 619.495 588.395C618.771 588.447 618.048 588.481 617.324 588.55C617.324 588.55 617.289 588.55 617.272 588.55C616.548 588.619 615.807 588.688 615.083 588.774C614.894 588.792 614.722 588.809 614.549 588.843C613.843 588.929 613.153 589.016 612.447 589.119C612.412 589.119 612.395 589.119 612.36 589.119C611.637 589.222 610.93 589.343 610.206 589.464C610.034 589.498 609.844 589.533 609.672 589.55C609 589.67 608.328 589.808 607.656 589.946C607.621 589.946 607.569 589.946 607.535 589.963C606.828 590.119 606.122 590.274 605.433 590.446C605.26 590.48 605.088 590.532 604.915 590.567C604.261 590.722 603.623 590.894 602.968 591.066C602.916 591.066 602.865 591.101 602.796 591.118C602.106 591.308 601.417 591.514 600.745 591.721C600.573 591.773 600.417 591.825 600.245 591.876C599.625 592.066 598.987 592.273 598.384 592.48C598.315 592.497 598.246 592.514 598.194 592.548C597.522 592.773 596.85 593.014 596.195 593.255C596.023 593.307 595.868 593.376 595.713 593.445C595.109 593.669 594.523 593.893 593.92 594.134C593.851 594.168 593.765 594.186 593.696 594.22C593.041 594.479 592.404 594.754 591.749 595.03C591.594 595.099 591.439 595.168 591.266 595.237C590.698 595.495 590.129 595.754 589.56 596.013C589.474 596.047 589.388 596.099 589.302 596.133C588.664 596.426 588.044 596.736 587.423 597.064C587.268 597.15 587.113 597.219 586.958 597.305C586.406 597.581 585.872 597.874 585.338 598.167C585.269 598.201 585.2 598.236 585.131 598.27C585.114 598.27 585.097 598.287 585.079 598.305C584.235 598.77 583.408 599.235 582.58 599.735C582.511 599.769 582.443 599.821 582.374 599.856C581.564 600.338 580.754 600.838 579.961 601.355C579.875 601.407 579.806 601.458 579.72 601.51C578.927 602.01 578.151 602.544 577.393 603.078C577.307 603.13 577.221 603.199 577.135 603.251C576.376 603.785 575.635 604.336 574.894 604.888C574.808 604.957 574.722 605.026 574.618 605.095C573.877 605.646 573.171 606.215 572.447 606.801C572.361 606.87 572.257 606.956 572.171 607.025C571.465 607.611 570.775 608.197 570.086 608.8C570 608.886 569.896 608.955 569.81 609.041C569.121 609.644 568.449 610.248 567.794 610.885C567.69 610.971 567.604 611.058 567.518 611.144C566.863 611.764 566.208 612.402 565.588 613.04C565.536 613.091 565.484 613.126 565.433 613.177C565.381 613.229 565.347 613.281 565.295 613.315C564.709 613.918 564.14 614.522 563.571 615.142C563.485 615.245 563.382 615.349 563.296 615.435C562.727 616.055 562.158 616.693 561.607 617.348C561.538 617.434 561.469 617.503 561.4 617.589C560.831 618.261 560.263 618.951 559.711 619.64C559.711 619.657 559.677 619.692 559.659 619.709C559.108 620.398 558.574 621.105 558.039 621.812C557.988 621.88 557.953 621.932 557.902 622.001C557.385 622.69 556.885 623.397 556.402 624.104C556.333 624.207 556.247 624.31 556.178 624.414C555.696 625.103 555.248 625.81 554.782 626.516C554.713 626.637 554.627 626.758 554.558 626.878C554.11 627.585 553.679 628.291 553.248 629.015C553.179 629.136 553.111 629.257 553.042 629.36C552.611 630.101 552.18 630.842 551.784 631.583C551.784 631.618 551.749 631.635 551.732 631.669C551.663 631.79 551.611 631.911 551.542 632.014C551.335 632.393 551.146 632.772 550.939 633.151C550.853 633.341 550.75 633.513 550.663 633.703C550.474 634.065 550.301 634.427 550.112 634.806C550.026 634.978 549.94 635.168 549.853 635.34C549.647 635.754 549.457 636.185 549.267 636.598C549.216 636.719 549.147 636.839 549.095 636.96C548.854 637.512 548.595 638.063 548.371 638.615C548.337 638.718 548.285 638.804 548.251 638.908C548.061 639.356 547.871 639.821 547.682 640.286C547.613 640.459 547.544 640.648 547.475 640.82C547.32 641.217 547.165 641.596 547.027 641.992C546.958 642.182 546.889 642.372 546.803 642.578C546.665 642.975 546.51 643.388 546.372 643.785C546.303 643.957 546.251 644.129 546.2 644.302C546.01 644.87 545.821 645.439 545.631 646.025L530.31 646.421V671.411L541.943 672.6C541.977 673.685 542.012 674.788 542.098 675.857L530.327 676.167L530.362 701.156L543.08 702.466L548.785 702.311C559.539 726.111 581.891 743.379 608.776 747.274C609.879 747.429 610.965 747.584 612.067 747.687C616.307 748.118 620.547 748.549 624.786 748.997C624.734 748.997 624.7 748.997 624.648 748.997C628.095 749.359 631.611 749.497 635.195 749.411C645.312 749.152 655.204 747.05 664.545 743.155C666.837 742.414 673.885 739.639 677.608 733.056C679.917 728.954 680.451 724.232 679.107 719.424L679.021 719.458ZM637.953 589.602C637.746 589.602 637.539 589.602 637.315 589.602C637.522 589.602 637.746 589.602 637.953 589.602Z" fill="url(#paint39_linear_16_1930)"/>
<path d="M632.972 749.703C630.215 749.703 627.423 749.566 624.683 749.273L624.441 749.255L611.964 747.98C610.947 747.877 609.896 747.739 608.655 747.567C582.046 743.706 559.573 726.903 548.544 702.603L543.012 702.741L530.034 701.414V701.19L530 675.96L541.753 675.65C541.685 674.65 541.65 673.668 541.616 672.858L530 671.669V646.197L545.373 645.801C545.545 645.284 545.717 644.767 545.89 644.25C545.941 644.112 545.976 643.991 546.027 643.853L546.062 643.733C546.2 643.336 546.338 642.923 546.493 642.526C546.562 642.337 546.631 642.13 546.717 641.94C546.855 641.544 547.01 641.165 547.165 640.768L547.423 640.096C547.596 639.683 547.768 639.269 547.94 638.855L548.061 638.562C548.302 638.011 548.544 637.442 548.785 636.891L548.957 636.512C549.147 636.081 549.354 635.667 549.543 635.254L549.629 635.064C549.681 634.943 549.733 634.84 549.802 634.719C549.94 634.444 550.06 634.185 550.198 633.927L550.629 633.065C550.836 632.686 551.025 632.307 551.232 631.927C551.267 631.859 551.301 631.79 551.336 631.721L551.456 631.479C551.87 630.721 552.301 629.98 552.731 629.239L552.938 628.894C553.369 628.17 553.8 627.447 554.265 626.74L554.351 626.602C554.351 626.602 554.438 626.464 554.489 626.395C554.955 625.689 555.42 624.982 555.885 624.293L556.109 623.983C556.609 623.276 557.109 622.569 557.609 621.88L557.712 621.742C558.281 620.967 558.832 620.26 559.366 619.588L559.418 619.519C559.97 618.813 560.538 618.14 561.107 617.451C561.176 617.382 561.245 617.296 561.297 617.227C561.865 616.555 562.434 615.917 563.003 615.297L563.279 614.987C563.847 614.366 564.416 613.763 565.002 613.16L565.14 613.022C565.14 613.022 565.226 612.936 565.278 612.884C565.881 612.281 566.501 611.643 567.225 610.971C567.311 610.885 567.415 610.799 567.501 610.713C568.156 610.092 568.828 609.472 569.517 608.869L569.793 608.627C570.5 608.007 571.206 607.421 571.895 606.852L572.171 606.628C572.895 606.042 573.619 605.456 574.343 604.922C574.412 604.87 574.498 604.801 574.584 604.75C575.359 604.164 576.118 603.612 576.859 603.095L577.117 602.923C577.979 602.32 578.737 601.803 579.461 601.355L579.702 601.2C580.564 600.648 581.357 600.148 582.132 599.7L582.339 599.58C583.235 599.045 584.063 598.58 584.855 598.149L584.924 598.115C584.924 598.115 585.062 598.046 585.131 598.011C585.665 597.718 586.2 597.443 586.751 597.15L587.216 596.908C587.837 596.598 588.474 596.288 589.095 595.978L589.353 595.857C589.922 595.599 590.491 595.323 591.059 595.081L591.542 594.875C592.197 594.599 592.835 594.323 593.489 594.047L593.714 593.961C594.299 593.72 594.903 593.496 595.506 593.272L595.988 593.082C596.661 592.841 597.333 592.6 598.005 592.376L598.194 592.307C598.815 592.1 599.435 591.893 600.073 591.704C600.245 591.652 600.4 591.6 600.573 591.549C601.262 591.342 601.934 591.135 602.641 590.945L602.813 590.894C603.451 590.721 604.106 590.549 604.76 590.394C604.933 590.359 605.105 590.308 605.277 590.273C605.984 590.101 606.691 589.946 607.397 589.791L607.535 589.756C608.207 589.618 608.879 589.481 609.551 589.36H609.655C609.793 589.308 609.948 589.291 610.086 589.256C610.792 589.136 611.516 589.015 612.24 588.895H612.326C613.033 588.774 613.722 588.688 614.429 588.602L614.963 588.533C615.687 588.446 616.428 588.378 617.169 588.309C617.944 588.24 618.668 588.188 619.392 588.153L619.943 588.119C620.684 588.085 621.426 588.05 622.184 588.033C625.7 587.929 629.215 588.067 632.662 588.429L645.363 589.739C651.654 590.394 657.772 591.755 663.631 593.823C670.542 595.874 675.264 599.528 677.625 604.698C680.193 610.316 678.849 615.676 678.159 617.727C675.798 629.101 667.974 633.341 661.443 633.513C660.684 633.53 659.96 633.513 659.237 633.427L658.599 633.358L646.518 632.117C645.26 631.996 644.329 631.755 643.881 631.617L643.347 631.462L642.813 631.221C641.658 630.687 640.486 630.204 639.331 629.773C637.815 629.222 636.229 628.739 634.609 628.343C619.754 628.808 607.466 634.513 599.952 644.388L638.573 643.371L651.55 644.698V644.922L651.568 670.152H651.326L591.783 671.72C591.783 672.496 591.835 673.323 591.904 674.34L638.59 673.116L651.568 674.443V674.667L651.602 699.898H651.361L603.468 701.156C608.414 706.033 614.635 709.376 621.943 711.117H622.322C629.594 710.927 636.574 709.118 643.054 705.757L643.743 705.447C645.949 704.551 648.138 704.068 650.258 703.999C650.947 703.982 651.619 703.999 652.291 704.068L664.975 705.378C673.334 706.223 677.884 713.426 679.245 719.372C680.589 724.232 680.072 729.006 677.711 733.176C673.92 739.897 666.647 742.689 664.51 743.396C655.152 747.291 645.243 749.393 635.092 749.652C634.368 749.669 633.662 749.686 632.955 749.686L632.972 749.703ZM624.597 748.756C628.13 749.118 631.611 749.255 635.092 749.169C645.191 748.911 655.032 746.808 664.355 742.931C666.475 742.241 673.575 739.501 677.28 732.952C679.573 728.902 680.072 724.266 678.763 719.527C677.436 713.702 672.989 706.653 664.82 705.895L664.217 705.826H663.924V705.792L652.274 704.603C651.619 704.534 650.982 704.516 650.309 704.534C648.241 704.585 646.122 705.051 643.985 705.93L643.312 706.24C636.781 709.635 629.732 711.444 622.373 711.634C622.304 711.634 622.218 711.634 622.149 711.634H621.925H621.891C614.273 709.824 607.811 706.291 602.727 701.104L602.313 700.69L651.137 699.415V674.909L638.625 673.633L591.473 674.874V674.633C591.37 673.392 591.318 672.41 591.318 671.496V671.238H591.559L651.102 669.687V645.18L638.608 643.905L598.97 644.939L599.28 644.525C606.863 634.254 619.444 628.326 634.678 627.86H634.713H634.747C636.402 628.257 638.022 628.756 639.573 629.308C640.745 629.739 641.934 630.239 643.106 630.773L643.605 630.997L644.105 631.152C644.536 631.273 645.432 631.514 646.656 631.634L659.237 632.927C659.995 633.013 660.736 633.048 661.511 633.013C667.853 632.841 675.454 628.705 677.763 617.606C678.452 615.59 679.745 610.368 677.263 604.922C674.971 599.907 670.37 596.34 663.579 594.323C657.634 592.238 651.43 590.859 645.122 590.239L643.226 590.032V590.066L642.658 590.032V589.98L640.366 589.739V589.894H639.935V589.705L637.987 589.498V589.842H637.35V589.429L632.714 588.946C629.284 588.602 625.786 588.464 622.287 588.55C621.546 588.567 620.805 588.602 620.064 588.636L619.513 588.671C618.789 588.722 618.065 588.757 617.358 588.826C616.583 588.895 615.859 588.963 615.135 589.05L614.601 589.119C613.894 589.205 613.205 589.291 612.516 589.394H612.447C611.706 589.515 610.999 589.636 610.275 589.756C610.137 589.773 609.982 589.808 609.844 589.825H609.741C609.069 589.963 608.397 590.101 607.725 590.239H607.604C606.897 590.411 606.191 590.566 605.501 590.739C605.329 590.773 605.157 590.825 605.002 590.859C604.347 591.014 603.709 591.187 603.071 591.359L602.899 591.411C602.21 591.6 601.52 591.79 600.848 591.997C600.676 592.048 600.521 592.1 600.349 592.152C599.711 592.341 599.09 592.548 598.487 592.755L598.298 592.824C597.626 593.048 596.953 593.289 596.299 593.53L595.816 593.72C595.213 593.944 594.627 594.168 594.041 594.409L593.817 594.496C593.162 594.754 592.524 595.03 591.869 595.306L591.387 595.512C590.818 595.771 590.25 596.029 589.698 596.288L589.44 596.409C588.802 596.701 588.181 597.012 587.561 597.322L587.096 597.563C586.561 597.839 586.01 598.132 585.476 598.425C585.39 598.459 585.321 598.494 585.269 598.528L585.2 598.563C584.424 598.994 583.597 599.459 582.718 599.976L582.494 600.097C581.736 600.545 580.943 601.044 580.082 601.579L579.892 601.699C579.134 602.199 578.375 602.699 577.514 603.302L577.255 603.474C576.514 603.991 575.756 604.543 575.015 605.112L574.756 605.318C574.032 605.87 573.309 606.439 572.602 607.025L572.326 607.249C571.637 607.817 570.948 608.403 570.241 609.006L569.965 609.248C569.293 609.851 568.604 610.454 567.966 611.074C567.863 611.161 567.777 611.247 567.69 611.333C566.967 612.022 566.346 612.643 565.76 613.229C565.691 613.298 565.657 613.332 565.605 613.367L565.467 613.504C564.881 614.108 564.313 614.711 563.744 615.331L563.468 615.624C562.899 616.245 562.331 616.882 561.779 617.52C561.71 617.606 561.641 617.692 561.572 617.761C561.004 618.433 560.452 619.105 559.901 619.795C559.883 619.812 559.866 619.847 559.832 619.864C559.315 620.519 558.763 621.225 558.229 621.949L558.091 622.139C557.574 622.828 557.092 623.535 556.592 624.241L556.368 624.551C555.902 625.241 555.437 625.947 554.972 626.637C554.937 626.706 554.886 626.775 554.834 626.861L554.748 626.999C554.3 627.705 553.869 628.412 553.438 629.136L553.231 629.48C552.8 630.221 552.37 630.962 551.973 631.703C551.973 631.703 551.956 631.755 551.921 631.772L551.853 631.91C551.853 631.91 551.784 632.048 551.732 632.117C551.525 632.479 551.336 632.858 551.129 633.237L550.698 634.099C550.56 634.357 550.439 634.616 550.301 634.892C550.25 634.995 550.198 635.116 550.129 635.236L550.043 635.426C549.836 635.84 549.647 636.27 549.457 636.684L549.285 637.046C549.043 637.597 548.802 638.149 548.561 638.7L548.44 638.993C548.268 639.407 548.096 639.821 547.923 640.234L547.665 640.906C547.51 641.303 547.372 641.682 547.217 642.078C547.148 642.268 547.079 642.457 546.993 642.664C546.855 643.061 546.717 643.457 546.562 643.853L546.51 643.974C546.458 644.095 546.424 644.232 546.372 644.37C546.183 644.939 545.993 645.508 545.803 646.076L545.752 646.249L530.5 646.645V671.152L542.133 672.341V672.565C542.167 673.461 542.202 674.633 542.288 675.822V676.081L530.517 676.391V700.897L543.029 702.173L548.871 702.017L548.94 702.173C559.883 726.403 582.236 743.155 608.741 746.998C609.982 747.17 611.034 747.308 612.033 747.411L624.614 748.704L624.597 748.756Z" fill="url(#paint40_linear_16_1930)"/>
<path d="M677.384 720.044C675.781 712.91 670.249 705.723 661.477 705.723C659.409 705.723 657.255 706.137 655.101 706.981L654.428 707.274C647.966 710.48 640.986 712.117 633.713 712.117C620.392 712.117 609.345 707.498 601.745 699.502H649.948V674.478H590.767C590.612 672.927 590.525 671.342 590.491 669.704H649.948V644.681H597.212C604.485 633.737 617.29 627.361 633.713 627.361C640.934 627.361 647.845 628.964 654.273 632.117L654.773 632.359L655.29 632.531C655.945 632.738 657.686 633.238 660.029 633.238C666.458 633.238 674.11 629.239 676.436 618.037C677.177 615.866 678.401 610.713 675.936 605.164C673.627 600.011 669.008 596.271 662.184 594.048C653.084 590.584 643.502 588.826 633.696 588.826C597.988 588.826 567.673 612.333 557.385 644.681H542.15V669.704H553.662C553.662 671.307 553.731 672.893 553.852 674.478H542.15V699.502H559.746C571.792 728.489 600.4 748.911 633.696 748.911C643.761 748.911 653.584 747.067 662.89 743.414C665.165 742.724 672.179 740.139 675.885 733.642C678.194 729.592 678.711 724.887 677.401 720.027L677.384 720.044Z" fill="url(#paint41_linear_16_1930)"/>
<path d="M646.984 647.731H545.339V666.637H646.984V647.731Z" fill="url(#paint42_linear_16_1930)"/>
<path d="M646.984 677.529H545.339V696.434H646.984V677.529Z" fill="url(#paint43_linear_16_1930)"/>
<path d="M674.54 720.768C673.541 716.218 669.732 708.773 661.598 708.773C659.892 708.773 658.117 709.118 656.307 709.825L655.894 710.014C649 713.444 641.572 715.167 633.8 715.167C606.105 715.167 587.492 696.555 587.492 668.86C587.492 641.165 605.674 624.293 633.8 624.293C641.486 624.293 648.862 625.999 655.721 629.36L656.031 629.515L656.359 629.618C656.755 629.739 658.186 630.17 660.15 630.17C662.718 630.17 671.197 629.222 673.593 617.21C674.196 615.538 675.368 611.127 673.248 606.404C671.301 602.044 667.285 598.856 661.27 596.926C652.498 593.582 643.261 591.876 633.8 591.876C591.353 591.876 556.816 626.413 556.816 668.86C556.816 711.307 591.353 745.843 633.8 745.843C643.537 745.843 653.015 744.051 661.994 740.518C663.666 740.018 670.094 737.812 673.317 732.125C675.23 728.765 675.643 724.853 674.523 720.768H674.54Z" fill="url(#paint44_linear_16_1930)"/>
<path style="mix-blend-mode:soft-light" d="M616.014 597.805C622.098 597.667 628.474 598.218 634.299 600.114C639.866 601.941 644.933 605.129 649.155 609.145C655.101 614.78 659.771 622.087 661.994 630.032C665.527 629.498 671.628 627.119 673.61 617.21C674.213 615.538 675.385 611.127 673.265 606.404C671.318 602.044 667.302 598.856 661.287 596.926C652.515 593.582 643.278 591.876 633.817 591.876C621.236 591.876 609.362 594.909 598.867 600.286C604.468 598.804 610.206 597.925 616.014 597.805Z" fill="url(#paint45_linear_16_1930)"/>
<path style="mix-blend-mode:soft-light" d="M619.341 744.482C619.944 743.896 620.53 743.293 621.099 742.672C625.734 737.554 628.337 731.246 628.475 724.318C628.544 721.13 628.199 717.976 627.682 714.839C622.443 714.288 617.583 713.013 613.205 711.1C602.538 711.875 591.646 709.738 582.994 703.12C578.117 699.398 574.188 694.297 570.948 689.127C567.743 684.025 565.192 678.493 563.538 672.703C560.367 661.587 560.384 649.678 563.779 638.631C564.416 636.546 565.175 634.495 566.019 632.496C563.434 637.287 561.349 642.388 559.815 647.731H545.373V666.636H556.902C556.885 667.377 556.868 668.118 556.868 668.86C556.868 671.789 557.04 674.685 557.351 677.528H545.373V696.434H561.969C571.396 720.94 593.025 739.449 619.358 744.482H619.341Z" fill="url(#paint46_linear_16_1930)"/>
<path style="mix-blend-mode:hard-light" opacity="0.5" d="M584.7 627.723C585.89 634.702 588.561 641.251 592.335 647.059C599.504 632.772 614.239 624.293 633.817 624.293C641.503 624.293 648.879 625.999 655.738 629.36L656.048 629.515L656.376 629.618C656.772 629.739 658.203 630.17 660.167 630.17C662.735 630.17 671.214 629.222 673.61 617.21C674.213 615.538 675.385 611.127 673.265 606.404C671.318 602.044 667.302 598.856 661.287 596.926C652.515 593.582 643.278 591.876 633.817 591.876C615.463 591.876 598.608 598.339 585.372 609.093C583.908 615.159 583.632 621.501 584.7 627.74V627.723Z" fill="url(#paint47_linear_16_1930)"/>
<path style="mix-blend-mode:hard-light" opacity="0.5" d="M674.541 720.768C673.541 716.219 669.732 708.774 661.598 708.774C659.892 708.774 658.117 709.118 656.307 709.825L655.894 710.014C649 713.444 641.572 715.167 633.8 715.167C616.6 715.167 602.917 707.981 595.006 695.917C594.886 703.19 595.11 710.514 596.73 717.632C598.212 724.181 600.676 730.557 604.123 736.331C605.123 738.002 606.191 739.622 607.346 741.173C615.601 744.206 624.528 745.861 633.817 745.861C643.106 745.861 653.033 744.069 662.012 740.536C663.683 740.036 670.111 737.83 673.334 732.143C675.247 728.782 675.661 724.87 674.541 720.786V720.768Z" fill="url(#paint48_linear_16_1930)"/>
<path style="mix-blend-mode:soft-light" d="M615.532 712.048C598.246 705.654 587.527 689.885 587.527 668.86C587.527 647.835 598.074 633.186 615.532 627.171V594.065C581.891 602.303 556.833 632.703 556.833 668.843C556.833 704.982 581.874 735.4 615.532 743.62V712.013V712.048Z" fill="url(#paint49_linear_16_1930)"/>
<path d="M674.403 720.768C673.403 716.219 669.594 708.774 661.46 708.774C659.754 708.774 657.979 709.118 656.169 709.825L655.756 710.014C648.862 713.444 641.434 715.167 633.679 715.167C616.721 715.167 603.192 708.188 595.23 696.434H646.846V677.529H588.027C587.596 674.754 587.372 671.876 587.372 668.86C587.372 668.102 587.389 667.378 587.423 666.637H646.846V647.731H591.87C598.901 633.048 613.808 624.293 633.679 624.293C641.365 624.293 648.741 625.999 655.583 629.36L655.893 629.515L656.221 629.619C656.617 629.739 658.048 630.17 660.012 630.17C662.58 630.17 671.059 629.222 673.455 617.21C674.058 615.538 675.23 611.127 673.11 606.405C671.18 602.044 667.147 598.856 661.132 596.926C652.36 593.583 643.123 591.876 633.679 591.876C598.556 591.876 568.845 615.521 559.642 647.731H545.2V666.637H556.73C556.713 667.378 556.695 668.119 556.695 668.86C556.695 671.79 556.868 674.685 557.195 677.529H545.2V696.434H561.814C572.93 725.301 600.952 745.844 633.696 745.844C643.416 745.844 652.912 744.051 661.891 740.518C663.562 740.019 669.991 737.813 673.231 732.125C675.144 728.765 675.557 724.853 674.42 720.768H674.403Z" fill="url(#paint50_linear_16_1930)"/>
<defs>
<linearGradient id="paint0_linear_16_1930" x1="294.879" y1="535.877" x2="4.31322e-05" y2="831.528" gradientUnits="userSpaceOnUse">
<stop offset="0.219723" stop-color="#BB94FA"/>
<stop offset="0.520833" stop-color="#91C5E7"/>
<stop offset="0.765492" stop-color="#60FFD0"/>
</linearGradient>
<linearGradient id="paint1_linear_16_1930" x1="506.549" y1="231.175" x2="987.964" y2="190.759" gradientUnits="userSpaceOnUse">
<stop offset="0.219723" stop-color="#BB94FA"/>
<stop offset="0.520833" stop-color="#91C5E7"/>
<stop offset="0.765492" stop-color="#60FFD0"/>
</linearGradient>
<linearGradient id="paint2_linear_16_1930" x1="94" y1="228.009" x2="201.603" y2="228.009" gradientUnits="userSpaceOnUse">
<stop stop-color="#03645E"/>
<stop offset="1" stop-color="#60FFD0"/>
</linearGradient>
<linearGradient id="paint3_linear_16_1930" x1="100.434" y1="228.506" x2="204.972" y2="228.506" gradientUnits="userSpaceOnUse">
<stop stop-color="#038179"/>
<stop offset="0.53" stop-color="#00F0F0"/>
<stop offset="1" stop-color="#08988F"/>
</linearGradient>
<linearGradient id="paint4_linear_16_1930" x1="104.603" y1="228.505" x2="200.803" y2="228.505" gradientUnits="userSpaceOnUse">
<stop stop-color="#C37700"/>
<stop offset="0.33" stop-color="#F7DB49"/>
<stop offset="0.41" stop-color="#FFF258"/>
<stop offset="0.99" stop-color="#965300"/>
</linearGradient>
<linearGradient id="paint5_linear_16_1930" x1="104.603" y1="167.069" x2="200.803" y2="167.069" gradientUnits="userSpaceOnUse">
<stop stop-color="#F7DB49"/>
<stop offset="1" stop-color="#BF8418"/>
</linearGradient>
<linearGradient id="paint6_linear_16_1930" x1="104.603" y1="272.601" x2="200.803" y2="272.601" gradientUnits="userSpaceOnUse">
<stop stop-color="#F7DB49"/>
<stop offset="1" stop-color="#BF8418"/>
</linearGradient>
<linearGradient id="paint7_linear_16_1930" x1="104.603" y1="183.912" x2="200.802" y2="183.912" gradientUnits="userSpaceOnUse">
<stop offset="0.02" stop-color="white"/>
<stop offset="0.49" stop-color="#A99A00"/>
<stop offset="1" stop-color="white"/>
</linearGradient>
<linearGradient id="paint8_linear_16_1930" x1="104.603" y1="275.113" x2="200.803" y2="275.113" gradientUnits="userSpaceOnUse">
<stop offset="0.02" stop-color="white"/>
<stop offset="0.49" stop-color="#A99A00"/>
<stop offset="1" stop-color="white"/>
</linearGradient>
<linearGradient id="paint9_linear_16_1930" x1="104.575" y1="167.069" x2="200.803" y2="167.069" gradientUnits="userSpaceOnUse">
<stop stop-color="#F7DB49"/>
<stop offset="1" stop-color="#F4A920"/>
</linearGradient>
<linearGradient id="paint10_linear_16_1930" x1="104.603" y1="279.478" x2="200.831" y2="279.478" gradientUnits="userSpaceOnUse">
<stop stop-color="#F7DB49"/>
<stop offset="1" stop-color="#BF8418"/>
</linearGradient>
<linearGradient id="paint11_linear_16_1930" x1="104.603" y1="258.161" x2="200.802" y2="258.161" gradientUnits="userSpaceOnUse">
<stop stop-color="#F7DB49"/>
<stop offset="1" stop-color="#BF8418"/>
</linearGradient>
<linearGradient id="paint12_linear_16_1930" x1="152.772" y1="142.881" x2="152.772" y2="314.13" gradientUnits="userSpaceOnUse">
<stop stop-color="#57CFC8"/>
<stop offset="1" stop-color="#1BCB8C"/>
</linearGradient>
<linearGradient id="paint13_linear_16_1930" x1="133.317" y1="-323.363" x2="787.211" y2="-230.312" gradientUnits="userSpaceOnUse">
<stop stop-color="#1F2320"/>
<stop offset="1" stop-color="#414943"/>
</linearGradient>
<linearGradient id="paint14_linear_16_1930" x1="659.5" y1="261" x2="289.344" y2="427.704" gradientUnits="userSpaceOnUse">
<stop stop-color="white" stop-opacity="0.15"/>
<stop stop-color="white" stop-opacity="0.08"/>
<stop offset="1" stop-color="white" stop-opacity="0"/>
</linearGradient>
<linearGradient id="paint15_linear_16_1930" x1="225.005" y1="276.102" x2="666.192" y2="644.712" gradientUnits="userSpaceOnUse">
<stop stop-color="white"/>
<stop offset="1" stop-color="white" stop-opacity="0.38"/>
</linearGradient>
<linearGradient id="paint16_linear_16_1930" x1="225.005" y1="276.102" x2="666.192" y2="644.712" gradientUnits="userSpaceOnUse">
<stop stop-color="white"/>
<stop offset="1" stop-color="white" stop-opacity="0.38"/>
</linearGradient>
<linearGradient id="paint17_linear_16_1930" x1="822.941" y1="302.182" x2="798.282" y2="798.486" gradientUnits="userSpaceOnUse">
<stop stop-color="white"/>
<stop offset="1" stop-color="white" stop-opacity="0.26"/>
</linearGradient>
<linearGradient id="paint18_linear_16_1930" x1="563.79" y1="220.946" x2="761.154" y2="251.719" gradientUnits="userSpaceOnUse">
<stop stop-color="#1F2320"/>
<stop offset="1" stop-color="#414943"/>
</linearGradient>
<linearGradient id="paint19_linear_16_1930" x1="803.061" y1="304.951" x2="552.984" y2="480.938" gradientUnits="userSpaceOnUse">
<stop offset="0.0182471" stop-color="white" stop-opacity="0.65"/>
<stop offset="0.5181" stop-color="white" stop-opacity="0.3"/>
<stop offset="0.87511" stop-color="white" stop-opacity="0"/>
</linearGradient>
<radialGradient id="paint20_radial_16_1930" cx="0" cy="0" r="1" gradientUnits="userSpaceOnUse" gradientTransform="translate(630.537 441.366) rotate(90) scale(32.0976)">
<stop stop-color="#FAEDD0"/>
<stop offset="1" stop-color="#DEBC91"/>
</radialGradient>
<radialGradient id="paint21_radial_16_1930" cx="0" cy="0" r="1" gradientUnits="userSpaceOnUse" gradientTransform="translate(611.049 351.378) rotate(79.4085) scale(143.444)">
<stop stop-color="white" stop-opacity="0.58"/>
<stop offset="0.496239" stop-color="white"/>
<stop offset="1" stop-color="white" stop-opacity="0"/>
</radialGradient>
<linearGradient id="paint22_linear_16_1930" x1="692.379" y1="350.069" x2="703.048" y2="350.71" gradientUnits="userSpaceOnUse">
<stop stop-color="#404842"/>
<stop offset="1" stop-color="#414943"/>
</linearGradient>
<linearGradient id="paint23_linear_16_1930" x1="224.416" y1="521.846" x2="114.769" y2="624.523" gradientUnits="userSpaceOnUse">
<stop stop-color="#CF00BA"/>
<stop offset="1" stop-color="#4F003D"/>
</linearGradient>
<linearGradient id="paint24_linear_16_1930" x1="85.0062" y1="542.413" x2="606" y2="542.413" gradientUnits="userSpaceOnUse">
<stop stop-color="#AC1E8D"/>
<stop offset="0.44" stop-color="#CF00A1"/>
<stop offset="1" stop-color="#9B1B7F"/>
</linearGradient>
<linearGradient id="paint25_linear_16_1930" x1="519.806" y1="121.503" x2="613.817" y2="102.218" gradientUnits="userSpaceOnUse">
<stop stop-color="#C56F00"/>
<stop offset="1" stop-color="#FECC8A"/>
</linearGradient>
<linearGradient id="paint26_linear_16_1930" x1="605.596" y1="167.965" x2="552.275" y2="46.0876" gradientUnits="userSpaceOnUse">
<stop stop-color="#C56F00"/>
<stop offset="0.52" stop-color="#FFCA85"/>
<stop offset="1" stop-color="#C56F00"/>
</linearGradient>
<linearGradient id="paint27_linear_16_1930" x1="623.209" y1="155.384" x2="531.68" y2="63.8552" gradientUnits="userSpaceOnUse">
<stop stop-color="#CB7300"/>
<stop offset="0.33" stop-color="#FF9304"/>
<stop offset="0.41" stop-color="#FF9201"/>
<stop offset="0.99" stop-color="#CB7503"/>
</linearGradient>
<linearGradient id="paint28_linear_16_1930" x1="604.838" y1="173.756" x2="513.309" y2="82.2266" gradientUnits="userSpaceOnUse">
<stop stop-color="#D17B0A"/>
<stop offset="0.33" stop-color="#FFA52F"/>
<stop offset="0.41" stop-color="#FFA733"/>
<stop offset="0.99" stop-color="#CC7B12"/>
</linearGradient>
<linearGradient id="paint29_linear_16_1930" x1="595.359" y1="183.251" x2="503.83" y2="91.7224" gradientUnits="userSpaceOnUse">
<stop stop-color="#D17B0A"/>
<stop offset="0.364583" stop-color="#FFC179"/>
<stop offset="0.473958" stop-color="#FFC179"/>
<stop offset="0.99" stop-color="#D17B0A"/>
</linearGradient>
<linearGradient id="paint30_linear_16_1930" x1="623.209" y1="155.384" x2="531.68" y2="63.8552" gradientUnits="userSpaceOnUse">
<stop stop-color="#CB7300"/>
<stop offset="0.33" stop-color="#FF9304"/>
<stop offset="0.41" stop-color="#FF9201"/>
<stop offset="0.99" stop-color="#CB7503"/>
</linearGradient>
<linearGradient id="paint31_linear_16_1930" x1="604.838" y1="173.756" x2="513.309" y2="82.2266" gradientUnits="userSpaceOnUse">
<stop stop-color="#D17B0A"/>
<stop offset="0.33" stop-color="#FFA52F"/>
<stop offset="0.41" stop-color="#FFA733"/>
<stop offset="0.99" stop-color="#CC7B12"/>
</linearGradient>
<linearGradient id="paint32_linear_16_1930" x1="595.359" y1="183.251" x2="503.83" y2="91.7224" gradientUnits="userSpaceOnUse">
<stop stop-color="#D17B0A"/>
<stop offset="0.364583" stop-color="#FFC179"/>
<stop offset="0.473958" stop-color="#FFC179"/>
<stop offset="0.99" stop-color="#D17B0A"/>
</linearGradient>
<linearGradient id="paint33_linear_16_1930" x1="623.209" y1="155.384" x2="531.68" y2="63.8552" gradientUnits="userSpaceOnUse">
<stop stop-color="#FFF258"/>
<stop offset="0.99" stop-color="#FFEF00"/>
</linearGradient>
<linearGradient id="paint34_linear_16_1930" x1="604.838" y1="173.756" x2="513.309" y2="82.2267" gradientUnits="userSpaceOnUse">
<stop stop-color="#FFF258"/>
<stop offset="0.99" stop-color="#FFEF00"/>
</linearGradient>
<linearGradient id="paint35_linear_16_1930" x1="595.359" y1="183.251" x2="503.83" y2="91.7225" gradientUnits="userSpaceOnUse">
<stop stop-color="#FFF258"/>
<stop offset="0.99" stop-color="#FFEF00"/>
</linearGradient>
<linearGradient id="paint36_linear_16_1930" x1="515.411" y1="43.2612" x2="610.439" y2="155.953" gradientUnits="userSpaceOnUse">
<stop stop-color="#C37700"/>
<stop offset="0.33" stop-color="#FF9407"/>
<stop offset="0.41" stop-color="#FF9810"/>
<stop offset="0.99" stop-color="#965300"/>
</linearGradient>
<linearGradient id="paint37_linear_16_1930" x1="582.313" y1="183.786" x2="556.325" y2="122.175" gradientUnits="userSpaceOnUse">
<stop stop-color="#C37700"/>
<stop offset="0.33" stop-color="#FACD93"/>
<stop offset="0.41" stop-color="#FCCC8E"/>
<stop offset="0.99" stop-color="#965300"/>
</linearGradient>
<linearGradient id="paint38_linear_16_1930" x1="490.5" y1="-53.0001" x2="616" y2="242" gradientUnits="userSpaceOnUse">
<stop stop-color="#F7FC02"/>
<stop offset="0.639868" stop-color="#F29E30"/>
</linearGradient>
<linearGradient id="paint39_linear_16_1930" x1="530.224" y1="668.86" x2="679.745" y2="668.86" gradientUnits="userSpaceOnUse">
<stop stop-color="#41256E"/>
<stop offset="1" stop-color="#814AD9"/>
</linearGradient>
<linearGradient id="paint40_linear_16_1930" x1="529.983" y1="668.86" x2="680.003" y2="668.86" gradientUnits="userSpaceOnUse">
<stop stop-color="#41256E"/>
<stop offset="1" stop-color="#814AD9"/>
</linearGradient>
<linearGradient id="paint41_linear_16_1930" x1="650.689" y1="715.409" x2="579.306" y2="606.956" gradientUnits="userSpaceOnUse">
<stop stop-color="#41256E"/>
<stop offset="0.33" stop-color="#C3A1FB"/>
<stop offset="0.41" stop-color="#995BFE"/>
<stop offset="0.99" stop-color="#41256E"/>
</linearGradient>
<linearGradient id="paint42_linear_16_1930" x1="545.339" y1="657.176" x2="647.001" y2="657.176" gradientUnits="userSpaceOnUse">
<stop stop-color="#A800C3"/>
<stop offset="0.33" stop-color="#CA49F7"/>
<stop offset="0.41" stop-color="#C058FF"/>
<stop offset="0.99" stop-color="#96006C"/>
</linearGradient>
<linearGradient id="paint43_linear_16_1930" x1="545.339" y1="686.973" x2="647.001" y2="686.973" gradientUnits="userSpaceOnUse">
<stop stop-color="#A800C3"/>
<stop offset="0.33" stop-color="#CA49F7"/>
<stop offset="0.41" stop-color="#C058FF"/>
<stop offset="0.99" stop-color="#96006C"/>
</linearGradient>
<linearGradient id="paint44_linear_16_1930" x1="556.833" y1="668.86" x2="675.161" y2="668.86" gradientUnits="userSpaceOnUse">
<stop stop-color="#C37700"/>
<stop offset="0.33" stop-color="#F7DB49"/>
<stop offset="0.41" stop-color="#FFF258"/>
<stop offset="0.99" stop-color="#965300"/>
</linearGradient>
<linearGradient id="paint45_linear_16_1930" x1="545.338" y1="610.954" x2="675.161" y2="610.954" gradientUnits="userSpaceOnUse">
<stop offset="0.02" stop-color="white"/>
<stop offset="0.49" stop-color="#A99A00"/>
<stop offset="1" stop-color="white"/>
</linearGradient>
<linearGradient id="paint46_linear_16_1930" x1="545.339" y1="688.489" x2="675.161" y2="688.489" gradientUnits="userSpaceOnUse">
<stop offset="0.02" stop-color="white"/>
<stop offset="0.49" stop-color="#A99A00"/>
<stop offset="1" stop-color="white"/>
</linearGradient>
<linearGradient id="paint47_linear_16_1930" x1="556.833" y1="619.468" x2="675.161" y2="619.468" gradientUnits="userSpaceOnUse">
<stop stop-color="#F7DB49"/>
<stop offset="1" stop-color="#BF8418"/>
</linearGradient>
<linearGradient id="paint48_linear_16_1930" x1="556.833" y1="720.889" x2="675.161" y2="720.889" gradientUnits="userSpaceOnUse">
<stop stop-color="#F7DB49"/>
<stop offset="1" stop-color="#BF8418"/>
</linearGradient>
<linearGradient id="paint49_linear_16_1930" x1="623.218" y1="705.861" x2="577.824" y2="627.326" gradientUnits="userSpaceOnUse">
<stop offset="0.02" stop-color="white"/>
<stop offset="0.49" stop-color="#A99A00"/>
<stop offset="1" stop-color="white"/>
</linearGradient>
<linearGradient id="paint50_linear_16_1930" x1="501.5" y1="338.5" x2="651.5" y2="931.5" gradientUnits="userSpaceOnUse">
<stop stop-color="#B898F9"/>
<stop stop-color="#6251F6"/>
<stop offset="1" stop-color="#AB41FD"/>
</linearGradient>
<clipPath id="clip0_16_1930">
<rect x="172" y="227" width="529.61" height="420.707" rx="27.5122" fill="white"/>
</clipPath>
</defs>
</svg>
