<svg width="171" height="172" viewBox="0 0 171 172" fill="none" xmlns="http://www.w3.org/2000/svg">
  <g clip-path="url(#clip0_1855_1084)">
    <path d="M86.1713 11.6097C50.8738 11.6097 22.2612 40.2223 22.2612 75.5198C22.2612 93.1622 29.4096 109.137 40.9709 120.701C52.5354 132.272 79.7803 149.016 81.3781 166.592C81.6176 169.227 83.5255 171.385 86.1713 171.385C88.8172 171.385 90.725 169.227 90.9646 166.592C92.5623 149.016 119.807 132.272 131.372 120.701C142.933 109.137 150.081 93.1622 150.081 75.5198C150.081 40.2223 121.469 11.6097 86.1713 11.6097Z" fill="#FF4433"/>
    <path d="M86.1718 97.89C98.5256 97.89 108.54 87.8752 108.54 75.5214C108.54 63.1676 98.5256 53.1529 86.1718 53.1529C73.818 53.1529 63.8032 63.1676 63.8032 75.5214C63.8032 87.8752 73.818 97.89 86.1718 97.89Z" fill="white"/>
  </g>
  <defs>
    <clipPath id="clip0_1855_1084">
      <rect width="170.427" height="170.427" fill="white" transform="translate(0.958008 0.958038)"/>
    </clipPath>
  </defs>
</svg>
